<svg width="708" height="540" viewBox="0 0 708 540" fill="none" xmlns="http://www.w3.org/2000/svg">
<path fill-rule="evenodd" clip-rule="evenodd" d="M13.1146 323.076C25.2207 289.322 44.2906 279.047 62.4265 257.394C84.5742 230.949 99.5154 211.725 93.7659 177.71C84.3687 122.125 80.3427 -16.4969 227.493 1.62024C289.299 9.23328 324.3 50.5397 346.999 86.5918C421.826 205.411 441.578 101.075 596.916 180.694C684.372 225.518 710.495 289.957 706.927 372.407C702.569 473.128 619.512 539.832 521.58 539.926C429.285 540.015 403.069 489.292 283.129 484.243C226.078 478.723 166.94 488.704 112.215 471.67C83.2758 462.661 56.7003 446.178 35.7715 424.259C9.63037 396.881 0.335938 358.708 13.1146 323.076Z" fill="#F9F9F9"/>
<path fill-rule="evenodd" clip-rule="evenodd" d="M288.747 248.866H283.661C280.177 248.866 277.356 251.691 277.356 255.176V265.4C277.356 268.884 274.53 271.705 271.046 271.705H240.08C236.596 271.705 233.77 268.884 233.77 265.4V255.176C233.77 251.691 230.944 248.866 227.46 248.866H170.993C167.509 248.866 164.683 246.045 164.683 242.561V222.286C164.683 221.006 165.071 219.754 165.799 218.703L219.329 141.205C220.506 139.5 222.444 138.482 224.518 138.482H255.498C260.532 138.482 263.536 144.091 260.747 148.281L223.542 204.234C220.753 208.428 223.756 214.037 228.791 214.037C232.28 214.037 235.101 211.212 235.101 207.727V199.984C235.101 196.499 237.927 193.674 241.411 193.674H271.046C274.53 193.674 277.356 196.499 277.356 199.984V207.727C277.356 211.212 280.177 214.037 283.661 214.037H288.747C292.232 214.037 295.053 216.863 295.053 220.347V242.561C295.053 246.045 292.232 248.866 288.747 248.866Z" fill="#F0F0F0"/>
<path fill-rule="evenodd" clip-rule="evenodd" d="M376.89 205.093C376.89 182.637 371.818 171.409 361.669 171.409C351.515 171.409 346.438 182.637 346.438 205.093C346.438 227.549 351.515 238.782 361.669 238.782C371.818 238.782 376.89 227.549 376.89 205.093ZM330.357 266.474C321.282 260.953 314.179 252.962 309.041 242.491C303.903 232.024 301.334 219.558 301.334 205.093C301.334 190.629 303.903 178.163 309.041 167.696C314.179 157.229 321.282 149.233 330.357 143.713C339.428 138.192 349.866 135.437 361.669 135.437C373.467 135.437 383.901 138.192 392.971 143.713C402.046 149.233 409.15 157.229 414.287 167.696C419.43 178.163 421.998 190.629 421.998 205.093C421.998 219.558 419.43 232.024 414.287 242.491C409.15 252.962 402.046 260.953 392.971 266.474C383.901 271.994 373.467 274.75 361.669 274.75C349.866 274.75 339.428 271.994 330.357 266.474Z" fill="#F0F0F0"/>
<path fill-rule="evenodd" clip-rule="evenodd" d="M555.955 248.866H550.873C547.389 248.866 544.563 251.691 544.563 255.176V265.4C544.563 268.884 541.738 271.705 538.253 271.705H507.288C503.803 271.705 500.978 268.884 500.978 265.4V255.176C500.978 251.691 498.152 248.866 494.668 248.866H438.201C434.716 248.866 431.891 246.045 431.891 242.561V222.286C431.891 221.006 432.283 219.754 433.012 218.703L486.536 141.205C487.713 139.5 489.656 138.482 491.725 138.482H522.705C527.74 138.482 530.748 144.091 527.959 148.281L490.749 204.234C487.961 208.428 490.969 214.037 496.003 214.037C499.488 214.037 502.313 211.212 502.313 207.727V199.984C502.313 196.499 505.134 193.674 508.619 193.674H538.253C541.738 193.674 544.563 196.499 544.563 199.984V207.727C544.563 211.212 547.389 214.037 550.873 214.037H555.955C559.439 214.037 562.265 216.863 562.265 220.347V242.561C562.265 246.045 559.439 248.866 555.955 248.866Z" fill="#F0F0F0"/>
<path fill-rule="evenodd" clip-rule="evenodd" d="M277.874 248.188H272.788C269.304 248.188 266.483 251.014 266.483 254.498V264.718C266.483 268.202 263.657 271.027 260.173 271.027H229.202C225.723 271.027 222.897 268.202 222.897 264.718V254.498C222.897 251.014 220.071 248.188 216.587 248.188H160.12C156.636 248.188 153.81 245.363 153.81 241.879V221.608C153.81 220.324 154.198 219.077 154.926 218.021L208.456 140.523C209.633 138.818 211.571 137.8 213.645 137.8H244.624C249.659 137.8 252.662 143.409 249.874 147.603L212.668 203.557C209.88 207.751 212.883 213.36 217.918 213.36C221.402 213.36 224.228 210.534 224.228 207.05V199.302C224.228 195.817 227.054 192.992 230.538 192.992H260.173C263.657 192.992 266.483 195.817 266.483 199.302V207.05C266.483 210.534 269.304 213.36 272.788 213.36H277.874C281.358 213.36 284.179 216.181 284.179 219.665V241.879C284.179 245.363 281.358 248.188 277.874 248.188Z" fill="#C2C2FA"/>
<path fill-rule="evenodd" clip-rule="evenodd" d="M366.018 204.411C366.018 181.955 360.941 170.727 350.792 170.727C340.638 170.727 335.566 181.955 335.566 204.411C335.566 226.872 340.638 238.1 350.792 238.1C360.941 238.1 366.018 226.872 366.018 204.411ZM319.485 265.792C310.41 260.271 303.306 252.28 298.168 241.813C293.031 231.346 290.462 218.876 290.462 204.411C290.462 189.951 293.031 177.481 298.168 167.014C303.306 156.547 310.41 148.551 319.485 143.035C328.555 137.515 338.994 134.755 350.792 134.755C362.594 134.755 373.028 137.515 382.098 143.035C391.173 148.551 398.277 156.547 403.415 167.014C408.557 177.481 411.126 189.951 411.126 204.411C411.126 218.876 408.557 231.346 403.415 241.813C398.277 252.28 391.173 260.271 382.098 265.792C373.028 271.312 362.594 274.073 350.792 274.073C338.994 274.073 328.555 271.312 319.485 265.792Z" fill="#C2C2FA"/>
<path fill-rule="evenodd" clip-rule="evenodd" d="M545.082 248.188H540.001C536.516 248.188 533.691 251.014 533.691 254.498V264.718C533.691 268.202 530.865 271.027 527.381 271.027H496.415C492.931 271.027 490.105 268.202 490.105 264.718V254.498C490.105 251.014 487.279 248.188 483.795 248.188H427.328C423.844 248.188 421.018 245.363 421.018 241.879V221.608C421.018 220.324 421.41 219.077 422.139 218.021L475.664 140.523C476.841 138.818 478.784 137.8 480.853 137.8H511.833C516.867 137.8 519.875 143.409 517.087 147.603L479.876 203.557C477.088 207.751 480.096 213.36 485.131 213.36C488.615 213.36 491.436 210.534 491.436 207.05V199.302C491.436 195.817 494.262 192.992 497.746 192.992H527.381C530.865 192.992 533.691 195.817 533.691 199.302V207.05C533.691 210.534 536.516 213.36 540.001 213.36H545.082C548.566 213.36 551.392 216.181 551.392 219.665V241.879C551.392 245.363 548.566 248.188 545.082 248.188Z" fill="#C2C2FA"/>
<path fill-rule="evenodd" clip-rule="evenodd" d="M58.5214 352.954C78.035 352.954 94.1765 346.695 107.455 334.062C123.335 318.952 132.526 297.472 141.419 276.702C151.466 253.219 160.956 231.043 178.284 225.494C185.92 223.052 192.87 223.874 199.521 228.012C228.763 246.213 239.847 318.663 239.954 319.391L249.837 317.925C249.365 314.758 237.922 240.146 204.799 219.53C195.635 213.827 185.691 212.636 175.239 215.98C153.563 222.921 143.203 247.133 132.232 272.77C115.185 312.605 97.5627 353.799 36.2102 340.334L6.5334 330.731C3.90855 329.886 1.09219 331.325 0.242147 333.949C-0.603224 336.574 0.835327 339.391 3.46018 340.236L33.8235 350.04C42.5995 351.983 50.8243 352.954 58.5214 352.954Z" fill="#442F86"/>
<path fill-rule="evenodd" clip-rule="evenodd" d="M227.358 402.299L216.723 350.75C213.052 332.945 223.421 315.249 240.744 309.747C260.126 303.586 280.71 314.936 285.843 334.613L298.887 384.611L227.358 402.299Z" fill="url(#paint0_linear_542_919)"/>
<path fill-rule="evenodd" clip-rule="evenodd" d="M227.381 403.662C228.521 408.408 245.666 408.347 265.67 403.527C285.674 398.707 300.961 390.958 299.821 386.213C298.677 381.472 281.536 381.533 261.532 386.348C241.528 391.168 226.237 398.917 227.381 403.662Z" fill="#9186DD"/>
<path fill-rule="evenodd" clip-rule="evenodd" d="M270.574 389.679C270.284 391.276 273.147 393.13 276.963 393.817C280.779 394.503 284.109 393.761 284.394 392.159C284.684 390.557 281.821 388.702 278.005 388.021C274.189 387.334 270.859 388.077 270.574 389.679Z" fill="#442F86"/>
<path fill-rule="evenodd" clip-rule="evenodd" d="M245.362 397.408C245.077 399.006 247.936 400.86 251.756 401.546C255.572 402.233 258.902 401.49 259.187 399.888C259.477 398.286 256.614 396.437 252.798 395.75C248.977 395.064 245.652 395.806 245.362 397.408Z" fill="#442F86"/>
<path fill-rule="evenodd" clip-rule="evenodd" d="M259.393 315.785C259.393 315.785 274.815 321.395 279.723 337.522C284.632 353.645 288.84 374.331 288.84 374.331L274.815 374.681L259.393 315.785Z" fill="#BBD1F5"/>
<path fill-rule="evenodd" clip-rule="evenodd" d="M426.604 396.063V396.059L424.259 400.299L426.604 396.063ZM695.927 283.9L691.953 292.732C691.261 292.423 674.858 284.815 659.801 258.011C655.448 250.262 648.773 241.197 641.688 242.033C636.607 242.635 623.132 249.851 607.808 303.787C591.097 362.599 555.357 401.028 501.581 418.006C466.776 428.991 423.732 405.54 421.919 404.536L426.604 396.063C427.146 396.357 467.901 418.482 498.666 408.767C549.141 392.836 582.727 356.625 598.495 301.139C611.105 256.75 624.865 234.27 640.553 232.416C650.497 231.244 659.81 238.259 668.245 253.265C681.762 277.324 695.787 283.839 695.927 283.9Z" fill="#442F86"/>
<path fill-rule="evenodd" clip-rule="evenodd" d="M336.742 360.829L362.248 379.31C364.382 380.856 364.854 383.836 363.313 385.966C361.767 388.1 358.787 388.576 356.652 387.03L331.146 368.544C329.012 367.003 328.536 364.019 330.082 361.889C331.628 359.759 334.607 359.283 336.742 360.829Z" fill="#442F86"/>
<path fill-rule="evenodd" clip-rule="evenodd" d="M356.419 332.511L381.925 350.992C384.06 352.538 384.536 355.518 382.99 357.653C381.444 359.782 378.464 360.259 376.334 358.713L350.824 340.231C348.694 338.685 348.218 335.706 349.764 333.571C351.305 331.441 354.285 330.965 356.419 332.511Z" fill="#442F86"/>
<path fill-rule="evenodd" clip-rule="evenodd" d="M338.68 387.278L382.808 415.964C398.048 425.871 418.309 422.667 429.747 408.538C442.544 392.738 439.476 369.432 423.021 357.48L381.22 327.107L338.68 387.278Z" fill="url(#paint1_linear_542_919)"/>
<path fill-rule="evenodd" clip-rule="evenodd" d="M353.477 389.38L363.635 375.63L415.759 413.172C415.759 413.172 403.265 419.397 388.884 412.406C374.499 405.414 353.477 389.38 353.477 389.38Z" fill="#BBD1F5"/>
<path fill-rule="evenodd" clip-rule="evenodd" d="M203.734 471.189C209.283 471.189 211.973 468.415 211.973 465.174C211.973 458.051 200.684 460.522 200.684 456.939C200.684 455.716 201.712 454.716 204.374 454.716C206.093 454.716 207.952 455.216 209.754 456.243L211.142 452.829C209.339 451.694 206.84 451.11 204.402 451.11C198.881 451.11 196.219 453.857 196.219 457.163C196.219 464.37 207.508 461.876 207.508 465.51C207.508 466.696 206.424 467.584 203.762 467.584C201.436 467.584 198.994 466.752 197.359 465.566L195.832 468.943C197.55 470.274 200.656 471.189 203.734 471.189Z" fill="#442F86"/>
<path fill-rule="evenodd" clip-rule="evenodd" d="M221.841 467.527C219.679 467.527 218.016 465.977 218.016 463.394C218.016 460.816 219.679 459.265 221.841 459.265C224.009 459.265 225.643 460.816 225.643 463.394C225.643 465.977 224.009 467.527 221.841 467.527ZM221.841 471.077C226.587 471.077 230.024 467.887 230.024 463.394C230.024 458.906 226.587 455.716 221.841 455.716C217.101 455.716 213.635 458.906 213.635 463.394C213.635 467.887 217.101 471.077 221.841 471.077Z" fill="#442F86"/>
<path fill-rule="evenodd" clip-rule="evenodd" d="M237.04 457.906V455.935H232.906V470.858H237.236V463.814C237.236 460.956 238.814 459.653 241.201 459.653C241.533 459.653 241.808 459.681 242.168 459.709V455.716C239.87 455.716 238.095 456.463 237.04 457.906Z" fill="#442F86"/>
<path fill-rule="evenodd" clip-rule="evenodd" d="M248.88 457.906V455.935H244.746V470.858H249.076V463.814C249.076 460.956 250.654 459.653 253.041 459.653C253.373 459.653 253.648 459.681 254.012 459.709V455.716C251.71 455.716 249.935 456.463 248.88 457.906Z" fill="#442F86"/>
<path fill-rule="evenodd" clip-rule="evenodd" d="M267.763 455.935L263.55 466.056L259.361 455.935H254.9L261.36 470.965L261.304 471.105C260.72 472.436 260.057 472.964 258.866 472.964C258.006 472.964 257.091 472.604 256.423 472.02L254.844 475.098C255.816 475.958 257.478 476.458 259.001 476.458C261.691 476.458 263.742 475.374 265.185 471.768L271.924 455.935H267.763Z" fill="#442F86"/>
<path fill-rule="evenodd" clip-rule="evenodd" d="M274.474 465.697C272.951 465.697 271.784 466.752 271.784 468.359C271.784 469.498 272.368 470.358 273.283 470.717L272.064 475.126H274.81L276.389 471.133C277.024 469.606 277.136 469.083 277.136 468.359C277.136 466.78 276.029 465.697 274.474 465.697Z" fill="#442F86"/>
<path fill-rule="evenodd" clip-rule="evenodd" d="M296.384 461.843H292.722V455.104H296.384C299.125 455.104 300.513 456.351 300.513 458.49C300.513 460.596 299.125 461.843 296.384 461.843ZM296.631 451.442H288.229V470.858H292.722V465.505H296.631C301.816 465.505 305.062 462.815 305.062 458.49C305.062 454.132 301.816 451.442 296.631 451.442Z" fill="#442F86"/>
<path fill-rule="evenodd" clip-rule="evenodd" d="M313.492 468.167C311.965 468.167 311.049 467.443 311.049 466.364C311.049 465.365 311.689 464.618 313.712 464.618H316.682V466.14C316.182 467.499 314.931 468.167 313.492 468.167ZM313.824 455.716C311.437 455.716 309.027 456.351 307.392 457.518L308.943 460.54C310.026 459.681 311.661 459.153 313.24 459.153C315.57 459.153 316.682 460.237 316.682 462.091H313.24C308.695 462.091 306.836 463.922 306.836 466.556C306.836 469.134 308.915 471.077 312.408 471.077C314.599 471.077 316.154 470.358 316.958 468.999V470.858H321.007V462.343C321.007 457.822 318.373 455.716 313.824 455.716Z" fill="#442F86"/>
<path fill-rule="evenodd" clip-rule="evenodd" d="M332.291 466.584C330.016 466.584 328.354 465.117 328.354 462.922C328.354 460.732 330.016 459.265 332.291 459.265C334.565 459.265 336.2 460.732 336.2 462.922C336.2 465.117 334.565 466.584 332.291 466.584ZM336.368 455.935V457.85C335.229 456.407 333.51 455.716 331.432 455.716C327.303 455.716 323.973 458.569 323.973 462.922C323.973 467.28 327.303 470.134 331.432 470.134C333.375 470.134 335.009 469.526 336.144 468.275V468.915C336.144 471.605 334.813 472.992 331.763 472.992C329.853 472.992 327.77 472.324 326.495 471.297L324.776 474.402C326.523 475.762 329.269 476.458 332.099 476.458C337.475 476.458 340.474 473.907 340.474 468.359V455.935H336.368Z" fill="#442F86"/>
<path fill-rule="evenodd" clip-rule="evenodd" d="M351.37 458.985C353.313 458.985 354.724 460.209 355.032 462.091H347.681C347.989 460.181 349.399 458.985 351.37 458.985ZM359.11 463.45C359.11 458.653 355.723 455.716 351.342 455.716C346.793 455.716 343.384 458.934 343.384 463.394C343.384 467.831 346.737 471.077 351.898 471.077C354.589 471.077 356.667 470.246 358.054 468.667L355.751 466.168C354.724 467.14 353.589 467.611 352.01 467.611C349.736 467.611 348.152 466.477 347.737 464.618H359.026C359.054 464.253 359.11 463.786 359.11 463.45Z" fill="#442F86"/>
<path fill-rule="evenodd" clip-rule="evenodd" d="M383.509 451.442V463.231L373.859 451.442H370.142V470.858H374.579V459.069L384.261 470.858H387.946V451.442H383.509Z" fill="#442F86"/>
<path fill-rule="evenodd" clip-rule="evenodd" d="M399.341 467.527C397.179 467.527 395.516 465.977 395.516 463.394C395.516 460.816 397.179 459.265 399.341 459.265C401.504 459.265 403.143 460.816 403.143 463.394C403.143 465.977 401.504 467.527 399.341 467.527ZM399.341 471.077C404.087 471.077 407.524 467.887 407.524 463.394C407.524 458.906 404.087 455.716 399.341 455.716C394.601 455.716 391.135 458.906 391.135 463.394C391.135 467.887 394.601 471.077 399.341 471.077Z" fill="#442F86"/>
<path fill-rule="evenodd" clip-rule="evenodd" d="M418.865 467.084C418.393 467.443 417.758 467.639 417.118 467.639C415.955 467.639 415.259 466.944 415.259 465.669V459.597H418.977V456.271H415.259V452.638H410.934V456.271H408.631V459.597H410.934V465.725C410.934 469.274 412.984 471.077 416.506 471.077C417.837 471.077 419.145 470.773 420.028 470.134L418.865 467.084Z" fill="#442F86"/>
<path fill-rule="evenodd" clip-rule="evenodd" d="M445.291 455.048V451.442H430.625V470.858H435.113V463.786H444.1V460.181H435.113V455.048H445.291Z" fill="#442F86"/>
<path fill-rule="evenodd" clip-rule="evenodd" d="M454.749 467.527C452.586 467.527 450.924 465.977 450.924 463.394C450.924 460.816 452.586 459.265 454.749 459.265C456.911 459.265 458.546 460.816 458.546 463.394C458.546 465.977 456.911 467.527 454.749 467.527ZM454.749 471.077C459.49 471.077 462.927 467.887 462.927 463.394C462.927 458.906 459.49 455.716 454.749 455.716C450.008 455.716 446.538 458.906 446.538 463.394C446.538 467.887 450.008 471.077 454.749 471.077Z" fill="#442F86"/>
<path fill-rule="evenodd" clip-rule="evenodd" d="M476.518 455.935V463.315C476.518 466.056 475.075 467.336 473.076 467.336C471.166 467.336 470.054 466.224 470.054 463.73V455.935H465.729V464.365C465.729 468.971 468.363 471.077 472.109 471.077C473.935 471.077 475.603 470.386 476.738 469.083V470.858H480.843V455.935H476.518Z" fill="#442F86"/>
<path fill-rule="evenodd" clip-rule="evenodd" d="M493.93 455.716C491.907 455.716 490.161 456.407 488.993 457.682V455.935H484.864V470.858H489.189V463.478C489.189 460.732 490.684 459.457 492.767 459.457C494.677 459.457 495.789 460.568 495.789 462.978V470.858H500.114V462.315C500.114 457.766 497.451 455.716 493.93 455.716Z" fill="#442F86"/>
<path fill-rule="evenodd" clip-rule="evenodd" d="M511.346 467.527C509.184 467.527 507.516 465.977 507.516 463.394C507.516 460.816 509.184 459.265 511.346 459.265C513.481 459.265 515.143 460.816 515.143 463.394C515.143 465.977 513.481 467.527 511.346 467.527ZM515.059 450.279V457.518C513.98 456.295 512.425 455.716 510.594 455.716C506.381 455.716 503.135 458.709 503.135 463.394C503.135 468.083 506.381 471.077 510.594 471.077C512.593 471.077 514.172 470.437 515.255 469.134V470.858H519.384V450.279H515.059Z" fill="#442F86"/>
<defs>
<linearGradient id="paint0_linear_542_919" x1="287.842" y1="343.543" x2="216.081" y2="360.11" gradientUnits="userSpaceOnUse">
<stop stop-color="#60B0E2"/>
<stop offset="1" stop-color="#916EB0"/>
</linearGradient>
<linearGradient id="paint1_linear_542_919" x1="377.175" y1="418.687" x2="413.28" y2="324.63" gradientUnits="userSpaceOnUse">
<stop stop-color="#60B0E2"/>
<stop offset="1" stop-color="#916EB0"/>
</linearGradient>
</defs>
</svg>
