<svg width="209" height="51" viewBox="0 0 209 51" fill="none" xmlns="http://www.w3.org/2000/svg">
<g clip-path="url(#clip0_584_307)">
<g clip-path="url(#clip1_584_307)">
<g clip-path="url(#clip2_584_307)">
<g clip-path="url(#clip3_584_307)">
<g clip-path="url(#clip4_584_307)">
<g clip-path="url(#clip5_584_307)">
<g clip-path="url(#clip6_584_307)">
<path d="M16.9615 29.9205H0.53125V27.2224L11.8445 10.3731H4.16902L3.84524 13.2744H0.81059L0.918517 7.35113H16.5425V9.97311L5.17845 26.9113H13.7682L14.0919 23.8893H17.1139L16.9615 29.9205ZM36.6867 29.9205H19.1137V27.5334L21.577 27.07V10.2207L19.1137 9.75726V7.35113H36.2995V13.1665H33.2648L32.9982 10.3604H25.4814V16.7471H33.4045V19.7691H25.4814V26.943H33.4172L33.6838 24.0798H36.6867V29.9205ZM48.2032 29.9205H39.3659V27.5334L41.8355 27.07V10.2207L39.3659 9.75726V7.35113H49.7967C51.4939 7.35113 52.9413 7.61353 54.1391 8.13836C55.3369 8.65894 56.2511 9.40385 56.8817 10.3731C57.5124 11.3465 57.8277 12.521 57.8277 13.8966C57.8277 15.2171 57.5145 16.3683 56.8881 17.3502C56.2659 18.3321 55.394 19.094 54.2724 19.6357C53.1509 20.1775 51.8346 20.4589 50.3236 20.4801L45.7399 20.5309V27.07L48.2032 27.5334V29.9205ZM58.8181 29.9205H54.0439L49.7395 19.5342L53.3963 18.931L57.0532 27.1335L58.8181 27.5017V29.9205ZM45.7399 10.3731V17.4899H49.6316C51.096 17.4899 52.1795 17.1936 52.8821 16.6011C53.5847 16.0043 53.936 15.1388 53.936 14.0045C53.936 12.8956 53.5953 12.0131 52.9138 11.3571C52.2324 10.7011 51.1934 10.3731 49.7967 10.3731H45.7399ZM70.9059 30.2443C69.4076 30.2443 68.0553 29.9629 66.8491 29.3999C65.6386 28.837 64.6017 28.0434 63.7383 27.0192C62.8749 25.9992 62.2125 24.7908 61.7511 23.3941C61.2856 22.0017 61.0528 20.4738 61.0528 18.8104V18.4676C61.0528 16.8127 61.2856 15.289 61.7511 13.8966C62.2125 12.4999 62.8749 11.2873 63.7383 10.2588C64.6017 9.23032 65.6386 8.43463 66.8491 7.87171C68.0553 7.3088 69.4034 7.02734 70.8932 7.02734C72.4338 7.02734 73.8136 7.3088 75.0325 7.87171C76.2514 8.43463 77.2905 9.23032 78.1497 10.2588C79.0046 11.2873 79.6606 12.4999 80.1177 13.8966C80.5706 15.289 80.7971 16.8127 80.7971 18.4676V18.8104C80.7971 20.4738 80.5706 22.0017 80.1177 23.3941C79.6606 24.7908 79.0046 25.9992 78.1497 27.0192C77.2905 28.0434 76.2514 28.837 75.0325 29.3999C73.8136 29.9629 72.438 30.2443 70.9059 30.2443ZM70.9059 27.1462C72.2729 27.1462 73.3967 26.797 74.277 26.0986C75.1616 25.4003 75.8176 24.4268 76.2451 23.1783C76.6768 21.9297 76.8926 20.4738 76.8926 18.8104V18.4358C76.8926 16.7937 76.6747 15.3525 76.2387 14.1124C75.807 12.8723 75.1489 11.901 74.2643 11.1984C73.3797 10.4958 72.256 10.1445 70.8932 10.1445C69.5896 10.1445 68.4997 10.4958 67.6236 11.1984C66.7433 11.901 66.0809 12.8723 65.6365 14.1124C65.1921 15.3525 64.9699 16.7937 64.9699 18.4358V18.8104C64.9699 20.4611 65.1921 21.9149 65.6365 23.1719C66.0809 24.4247 66.7454 25.4003 67.63 26.0986C68.5145 26.797 69.6065 27.1462 70.9059 27.1462ZM92.3897 29.9205H82.8286V27.5334L85.3046 27.0509V10.2525L82.8286 9.75726V7.35113H85.3046H92.2817C94.2964 7.35113 96.0613 7.82727 97.5765 8.77957C99.0875 9.73186 100.266 11.0397 101.113 12.703C101.963 14.3664 102.389 16.271 102.389 18.4168V18.8676C102.389 20.988 101.974 22.882 101.144 24.5496C100.319 26.2172 99.1552 27.5292 97.6527 28.4857C96.1502 29.4423 94.3958 29.9205 92.3897 29.9205ZM89.209 10.3731V26.9113H92.1865C93.5113 26.9113 94.6413 26.5579 95.5767 25.8511C96.512 25.1442 97.2273 24.1835 97.7225 22.9688C98.2177 21.7541 98.4653 20.387 98.4653 18.8676V18.4041C98.4653 16.8423 98.2177 15.4604 97.7225 14.2584C97.2273 13.0564 96.512 12.1084 95.5767 11.4143C94.6413 10.7201 93.5113 10.3731 92.1865 10.3731H89.209ZM110.458 29.9205H103.284V27.5334L104.928 27.2985L112.401 7.35113H116.197L123.574 27.2985L125.218 27.5334V29.9205H118.038V27.5334L119.651 27.2414L118.457 23.6925H110.058L108.833 27.2414L110.458 27.5334V29.9205ZM114.007 12.3729L111.08 20.696H117.448L114.521 12.3412L114.318 11.738H114.229L114.007 12.3729ZM138.005 29.9205H129.199V27.5334L131.65 27.07V21.9847L124.857 10.0683L122.812 9.75726V7.35113H131.307V9.75726L129.148 10.0366L133.338 17.9406L133.675 18.62L133.738 18.5882L134.062 17.9533L138.589 10.0366L136.03 9.75726V7.35113H144.36V9.75726L142.233 10.0683L135.535 21.6736V27.07L138.005 27.5334V29.9205Z" fill="white"/>
</g>
</g>
<g clip-path="url(#clip7_584_307)">
<g clip-path="url(#clip8_584_307)">
<path d="M62.63 36.8325H60.9199C60.803 36.8325 60.7116 36.8705 60.6459 36.9465C60.5801 37.024 60.5472 37.1102 60.5472 37.2052H59.9224C59.9224 36.9348 60.0174 36.7046 60.2074 36.5146C60.4047 36.3173 60.6313 36.2186 60.887 36.2186H65.8529V36.8325H63.2878V43.7168H62.63V36.8325ZM68.5496 38.1261C68.7688 38.1261 68.9881 38.1589 69.2073 38.2247V38.8386C68.9954 38.7874 68.7835 38.7619 68.5715 38.7619C68.1988 38.7619 67.8955 38.8532 67.6617 39.0359C67.4278 39.2186 67.2195 39.4781 67.0368 39.8142V43.7168H66.3791V39.88C66.3791 39.3027 66.2256 38.8788 65.9187 38.6084L66.3572 38.1699C66.4887 38.2503 66.6129 38.3709 66.7299 38.5317C66.8468 38.6924 66.9308 38.8715 66.982 39.0688C67.1866 38.7326 67.3913 38.5024 67.5959 38.3782C67.8517 38.2101 68.1696 38.1261 68.5496 38.1261ZM75.3023 43.0371L75.7737 43.4098C75.664 43.5633 75.5413 43.6715 75.4053 43.7343C75.2709 43.7957 75.1159 43.8264 74.9405 43.8264C74.6848 43.8264 74.4597 43.7387 74.2653 43.5633C74.0723 43.3879 73.9759 43.176 73.9759 42.9275C73.4716 43.5121 72.8614 43.8045 72.1452 43.8045C71.5971 43.8045 71.1696 43.6707 70.8626 43.4032C70.5557 43.1372 70.3876 42.7338 70.3584 42.193V39.8471C70.3584 39.2698 70.2049 38.8459 69.8979 38.5755L70.3364 38.137C70.5118 38.2466 70.6689 38.4184 70.8078 38.6522C70.9467 38.8861 71.0161 39.1382 71.0161 39.4086V41.908C71.0161 42.3246 71.1089 42.6461 71.2945 42.8727C71.4816 43.0992 71.7871 43.2125 72.211 43.2125C72.6129 43.2125 72.9578 43.1248 73.2458 42.9494C73.5352 42.774 73.7749 42.4963 73.9649 42.1163L73.9759 38.2357H74.6336L74.6226 42.774C74.6226 42.9202 74.657 43.0313 74.7257 43.1073C74.7958 43.1847 74.8821 43.2235 74.9844 43.2235C75.1159 43.2235 75.2219 43.1613 75.3023 43.0371ZM78.7093 43.8264C78.1612 43.8264 77.6972 43.7131 77.3171 43.4866C76.9371 43.26 76.6506 42.9472 76.4577 42.5482C76.2633 42.1506 76.1661 41.6997 76.1661 41.1955C76.1661 40.6985 76.2597 40.2162 76.4467 39.7485C76.6324 39.2807 76.9137 38.8971 77.2908 38.5974C77.6665 38.2978 78.1247 38.148 78.6655 38.148C79.0236 38.148 79.3561 38.2174 79.663 38.3563C79.97 38.4951 80.2133 38.6924 80.3931 38.9482C80.5714 39.204 80.6606 39.5 80.6606 39.8362C80.6606 40.377 80.4304 40.795 79.97 41.0902C79.5096 41.3869 78.8738 41.5316 78.0626 41.5243L76.8567 41.5134C76.9225 42.0761 77.1111 42.5036 77.4224 42.7959C77.7322 43.0883 78.1612 43.2344 78.7093 43.2344C79.0382 43.2344 79.3437 43.1884 79.6258 43.0963C79.9064 43.0057 80.1783 42.8654 80.4414 42.6754L80.7702 43.1138C80.4925 43.3331 80.1768 43.5063 79.8231 43.6335C79.4679 43.7621 79.0967 43.8264 78.7093 43.8264ZM78.2051 40.9543C79.4036 40.9543 80.0029 40.5779 80.0029 39.8252C80.0029 39.4598 79.8772 39.1872 79.6258 39.0074C79.3729 38.8291 79.0638 38.7399 78.6984 38.7399C78.2891 38.7399 77.9442 38.8569 77.6635 39.0907C77.3815 39.3246 77.171 39.6133 77.0321 39.9567C76.8933 40.3002 76.8238 40.6327 76.8238 40.9543H78.2051ZM87.4352 43.947C87.0187 43.947 86.6182 43.8644 86.2338 43.6992C85.8508 43.5355 85.5242 43.309 85.2538 43.0196C84.9834 42.7316 84.8043 42.4086 84.7166 42.0505L85.2647 41.8203C85.3816 42.2661 85.6425 42.6315 86.0474 42.9165C86.4537 43.2015 86.9163 43.3441 87.4352 43.3441C87.786 43.3441 88.1039 43.2673 88.3889 43.1138C88.674 42.9604 88.8983 42.7499 89.062 42.4824C89.2272 42.2164 89.3098 41.9226 89.3098 41.6011C89.3098 41.3453 89.2549 41.1238 89.1453 40.9368C89.0357 40.7511 88.8493 40.5721 88.5863 40.3996C88.3232 40.2286 87.9468 40.0408 87.4571 39.8362C86.741 39.5365 86.233 39.231 85.9334 38.9197C85.6338 38.6099 85.484 38.2357 85.484 37.7972C85.484 37.4537 85.5717 37.1431 85.7471 36.8654C85.9224 36.5877 86.1651 36.3699 86.4749 36.2121C86.7863 36.0557 87.1356 35.9775 87.5229 35.9775C87.8591 35.9775 88.1624 36.0345 88.4328 36.1485C88.7032 36.261 88.9151 36.4174 89.0686 36.6177C89.2221 36.8194 89.2988 37.0445 89.2988 37.2929C89.2988 37.5853 89.1906 37.8264 88.9743 38.0164C88.7595 38.2064 88.4949 38.2832 88.1807 38.2466L88.2245 37.6766C88.3414 37.6912 88.4437 37.6598 88.5314 37.5823C88.6191 37.5063 88.663 37.4062 88.663 37.282C88.663 37.092 88.5497 36.9275 88.3232 36.7887C88.0966 36.6498 87.8335 36.5804 87.5339 36.5804C87.2854 36.5804 87.053 36.633 86.8367 36.7382C86.6218 36.8449 86.4523 36.9896 86.328 37.1723C86.2038 37.3551 86.1417 37.5524 86.1417 37.7643C86.1417 38.0712 86.271 38.3431 86.5298 38.5799C86.7899 38.8181 87.2269 39.0688 87.8408 39.3319C88.6082 39.6608 89.1541 39.9984 89.4786 40.3448C89.8045 40.6927 89.9675 41.1078 89.9675 41.5901C89.9675 42.0213 89.8542 42.4174 89.6277 42.7784C89.4011 43.1409 89.0942 43.4259 88.7068 43.6335C88.3195 43.8425 87.8956 43.947 87.4352 43.947ZM93.4973 43.8264C92.9492 43.8264 92.4851 43.7131 92.1051 43.4866C91.7251 43.26 91.4379 42.9472 91.2435 42.5482C91.0506 42.1506 90.9541 41.6997 90.9541 41.1955C90.9541 40.6985 91.0469 40.2162 91.2325 39.7485C91.4196 39.2807 91.701 38.8971 92.0766 38.5974C92.4537 38.2978 92.9127 38.148 93.4535 38.148C93.8116 38.148 94.1441 38.2174 94.451 38.3563C94.758 38.4951 95.0006 38.6924 95.1789 38.9482C95.3587 39.204 95.4486 39.5 95.4486 39.8362C95.4486 40.377 95.2184 40.795 94.758 41.0902C94.2975 41.3869 93.6617 41.5316 92.8505 41.5243L91.6447 41.5134C91.7105 42.0761 91.8983 42.5036 92.2082 42.7959C92.5195 43.0883 92.9492 43.2344 93.4973 43.2344C93.8262 43.2344 94.1309 43.1884 94.4116 43.0963C94.6936 43.0057 94.9662 42.8654 95.2293 42.6754L95.5582 43.1138C95.2805 43.3331 94.964 43.5063 94.6089 43.6335C94.2552 43.7621 93.8846 43.8264 93.4973 43.8264ZM92.993 40.9543C94.1916 40.9543 94.7908 40.5779 94.7908 39.8252C94.7908 39.4598 94.6644 39.1872 94.4116 39.0074C94.1602 38.8291 93.8518 38.7399 93.4863 38.7399C93.0771 38.7399 92.7314 38.8569 92.4493 39.0907C92.1687 39.3246 91.959 39.6133 91.8201 39.9567C91.6812 40.3002 91.6118 40.6327 91.6118 40.9543H92.993ZM99.1516 43.7825C98.3185 43.7825 97.6754 43.5501 97.2223 43.0853C96.7692 42.622 96.5426 41.9628 96.5426 41.1078C96.5426 40.5158 96.6486 39.9933 96.8605 39.5402C97.0724 39.0871 97.3684 38.7341 97.7484 38.4812C98.1285 38.2298 98.5669 38.1041 99.0639 38.1041C99.4366 38.1041 99.7728 38.1772 100.072 38.3234C100.372 38.4695 100.608 38.6683 100.781 38.9197C100.952 39.1726 101.037 39.4561 101.037 39.7704H100.423C100.423 39.4561 100.299 39.1982 100.05 38.9965C99.802 38.7962 99.4805 38.6961 99.0858 38.6961C98.5085 38.6961 98.0503 38.9153 97.7112 39.3538C97.3706 39.7923 97.2003 40.3806 97.2003 41.1187C97.2003 41.7911 97.3684 42.3041 97.7046 42.6578C98.0408 43.013 98.5231 43.1906 99.1516 43.1906C99.422 43.1906 99.6924 43.1518 99.9628 43.0744C100.233 42.9984 100.54 42.869 100.884 42.6863L101.169 43.1467C100.547 43.5706 99.8751 43.7825 99.1516 43.7825ZM107.318 43.0371L107.79 43.4098C107.68 43.5633 107.558 43.6715 107.424 43.7343C107.288 43.7957 107.132 43.8264 106.957 43.8264C106.701 43.8264 106.477 43.7387 106.284 43.5633C106.089 43.3879 105.992 43.176 105.992 42.9275C105.488 43.5121 104.878 43.8045 104.161 43.8045C103.613 43.8045 103.186 43.6707 102.879 43.4032C102.572 43.1372 102.404 42.7338 102.374 42.193V39.8471C102.374 39.2698 102.221 38.8459 101.914 38.5755L102.353 38.137C102.528 38.2466 102.685 38.4184 102.824 38.6522C102.963 38.8861 103.032 39.1382 103.032 39.4086V41.908C103.032 42.3246 103.126 42.6461 103.313 42.8727C103.498 43.0992 103.803 43.2125 104.227 43.2125C104.629 43.2125 104.975 43.1248 105.264 42.9494C105.552 42.774 105.791 42.4963 105.981 42.1163L105.992 38.2357H106.65L106.639 42.774C106.639 42.9202 106.674 43.0313 106.744 43.1073C106.813 43.1847 106.898 43.2235 107.001 43.2235C107.132 43.2235 107.238 43.1613 107.318 43.0371ZM110.925 38.1261C111.144 38.1261 111.363 38.1589 111.583 38.2247V38.8386C111.371 38.7874 111.159 38.7619 110.947 38.7619C110.574 38.7619 110.271 38.8532 110.037 39.0359C109.803 39.2186 109.595 39.4781 109.412 39.8142V43.7168H108.754V39.88C108.754 39.3027 108.601 38.8788 108.294 38.6084L108.733 38.1699C108.864 38.2503 108.988 38.3709 109.105 38.5317C109.222 38.6924 109.306 38.8715 109.357 39.0688C109.562 38.7326 109.767 38.5024 109.971 38.3782C110.227 38.2101 110.545 38.1261 110.925 38.1261ZM114.641 43.8264C114.093 43.8264 113.629 43.7131 113.249 43.4866C112.869 43.26 112.582 42.9472 112.387 42.5482C112.194 42.1506 112.098 41.6997 112.098 41.1955C112.098 40.6985 112.191 40.2162 112.376 39.7485C112.563 39.2807 112.845 38.8971 113.22 38.5974C113.598 38.2978 114.056 38.148 114.597 38.148C114.955 38.148 115.288 38.2174 115.595 38.3563C115.902 38.4951 116.144 38.6924 116.323 38.9482C116.503 39.204 116.592 39.5 116.592 39.8362C116.592 40.377 116.362 40.795 115.902 41.0902C115.441 41.3869 114.806 41.5316 113.994 41.5243L112.789 41.5134C112.854 42.0761 113.042 42.5036 113.352 42.7959C113.663 43.0883 114.093 43.2344 114.641 43.2344C114.97 43.2344 115.275 43.1884 115.555 43.0963C115.837 43.0057 116.11 42.8654 116.373 42.6754L116.702 43.1138C116.424 43.3331 116.108 43.5063 115.753 43.6335C115.399 43.7621 115.028 43.8264 114.641 43.8264ZM114.137 40.9543C115.335 40.9543 115.935 40.5779 115.935 39.8252C115.935 39.4598 115.808 39.1872 115.555 39.0074C115.304 38.8291 114.996 38.7399 114.63 38.7399C114.221 38.7399 113.875 38.8569 113.593 39.0907C113.313 39.3246 113.103 39.6133 112.964 39.9567C112.825 40.3002 112.756 40.6327 112.756 40.9543H114.137ZM124.604 43.9689C123.902 43.9689 123.268 43.7913 122.703 43.4361C122.136 43.0824 121.691 42.6037 121.37 42.0001C121.048 41.3979 120.887 40.7424 120.887 40.0335C120.887 39.3027 121.055 38.6208 121.392 37.9879C121.728 37.3565 122.185 36.8544 122.762 36.4817C123.339 36.109 123.975 35.9227 124.669 35.9227C125.101 35.9227 125.516 35.9862 125.915 36.1134C126.312 36.242 126.637 36.4306 126.89 36.6791C127.142 36.9275 127.267 37.2272 127.267 37.5779C127.267 37.863 127.167 38.1056 126.965 38.3058C126.765 38.5075 126.526 38.6084 126.248 38.6084C126.029 38.6084 125.82 38.5353 125.623 38.3892L126.007 37.9068C126.102 37.9653 126.186 37.9945 126.259 37.9945C126.354 37.9945 126.434 37.9543 126.5 37.8739C126.566 37.7935 126.599 37.6912 126.599 37.567C126.599 37.3551 126.499 37.1723 126.298 37.0189C126.097 36.8654 125.846 36.7485 125.546 36.6681C125.247 36.5877 124.958 36.5475 124.68 36.5475C124.088 36.5475 123.553 36.7061 123.073 37.0233C122.595 37.3419 122.221 37.768 121.951 38.3015C121.68 38.8349 121.545 39.4123 121.545 40.0335C121.545 40.6327 121.675 41.1867 121.935 41.6953C122.194 42.2025 122.555 42.6037 123.018 42.899C123.483 43.1957 124.015 43.3441 124.615 43.3441C125.141 43.3441 125.632 43.2249 126.088 42.9867C126.545 42.7499 126.917 42.4232 127.202 42.0067L127.706 42.3575C127.348 42.8836 126.895 43.2834 126.347 43.5567C125.798 43.8315 125.217 43.9689 124.604 43.9689ZM133.253 42.7959C133.253 42.8983 133.287 42.9838 133.356 43.0525C133.426 43.1226 133.509 43.1577 133.604 43.1577C133.75 43.1577 133.856 43.0956 133.921 42.9713L134.404 43.3331C134.345 43.4573 134.243 43.5611 134.097 43.6444C133.951 43.7292 133.786 43.7716 133.604 43.7716C133.311 43.7716 133.07 43.6802 132.88 43.4975C132.69 43.3148 132.595 43.0773 132.595 42.785V39.9129C132.595 39.5109 132.49 39.2055 132.281 38.9965C132.074 38.7889 131.769 38.6851 131.367 38.6851C131.016 38.6851 130.711 38.7779 130.451 38.9636C130.192 39.1507 129.924 39.4306 129.646 39.8033V43.6839H128.988V35.7253H129.646V39.0359C130.107 38.4074 130.706 38.0932 131.444 38.0932C132.043 38.0932 132.494 38.2466 132.797 38.5536C133.101 38.8605 133.253 39.3027 133.253 39.88V42.7959ZM137.177 43.8264C136.673 43.8264 136.242 43.6985 135.884 43.4427C135.526 43.1869 135.255 42.8471 135.072 42.4232C134.89 41.9994 134.798 41.5316 134.798 41.0201C134.798 40.4573 134.908 39.9582 135.127 39.5226C135.347 39.0885 135.661 38.7509 136.07 38.5097C136.479 38.2686 136.958 38.148 137.506 38.148C137.674 38.148 137.886 38.1568 138.142 38.1743C138.398 38.1933 138.624 38.2174 138.822 38.2466H139.479V42.774C139.479 42.9202 139.514 43.0313 139.582 43.1073C139.652 43.1847 139.739 43.2235 139.841 43.2235C139.973 43.2235 140.079 43.1613 140.159 43.0371L140.63 43.4098C140.521 43.5633 140.398 43.6715 140.262 43.7343C140.127 43.7957 139.973 43.8264 139.797 43.8264C139.541 43.8264 139.316 43.7387 139.122 43.5633C138.929 43.3879 138.832 43.176 138.832 42.9275C138.657 43.2198 138.427 43.4427 138.142 43.5962C137.857 43.7497 137.535 43.8264 137.177 43.8264ZM137.188 43.2344C137.517 43.2344 137.813 43.154 138.076 42.9933C138.339 42.8325 138.536 42.6205 138.668 42.3575C138.77 42.1455 138.822 41.9117 138.822 41.6559V38.7838L138.098 38.7619L137.462 38.7399C136.797 38.7399 136.297 38.9482 135.96 39.3648C135.624 39.7813 135.456 40.3258 135.456 40.9981C135.456 41.6193 135.604 42.147 135.899 42.5811C136.196 43.0166 136.625 43.2344 137.188 43.2344ZM142.897 43.8264C142.4 43.8264 142.035 43.6853 141.801 43.4032C141.567 43.1226 141.45 42.7009 141.45 42.1382V36.8654H142.108V38.2576H143.829V38.8496H142.108V42.1382C142.108 42.869 142.371 43.2344 142.897 43.2344C143.314 43.2344 143.635 43.0115 143.862 42.5657L144.355 42.9056C144.187 43.2125 143.986 43.4427 143.752 43.5962C143.518 43.7497 143.233 43.8264 142.897 43.8264Z" fill="#109E92"/>
</g>
</g>
</g>
</g>
<g clip-path="url(#clip9_584_307)">
<g clip-path="url(#clip10_584_307)">
<path d="M193.093 19.1162V12.7345C193.093 3.92221 186.718 -0.0288086 180.336 -0.0288086H167.567C161.191 -0.0288086 154.81 3.36165 154.81 12.7345C154.81 21.9083 161.191 25.4979 167.567 25.4979H169.049C168.146 27.2526 167.567 29.3371 167.567 31.8796V38.2612C167.567 45.3102 173.287 51.0246 180.336 51.0246C180.336 47.4973 183.197 44.6429 186.718 44.6429H193.093C199.481 44.6429 205.863 41.0533 205.863 31.8796C205.863 22.5067 199.481 19.1162 193.093 19.1162ZM167.567 19.1162C161.191 19.1162 161.191 14.3111 161.191 12.7345C161.191 10.8211 161.191 6.35287 167.567 6.35287H180.336C182.724 6.35287 186.718 7.18146 186.718 12.7345V19.1162C186.718 21.2007 185.715 23.058 184.15 24.2236C181.819 21.1231 178.117 19.1162 173.955 19.1162H167.567ZM193.093 38.2612H186.718C182.549 38.2612 178.84 40.2681 176.51 43.3656C174.958 42.2 173.955 40.3427 173.955 38.2612V31.8796C173.955 28.9598 175.407 27.1872 176.852 26.2765C178.897 27.3424 180.336 29.4178 180.336 31.8796C185.054 31.8796 189.124 29.2932 191.336 25.4918C191.33 25.4948 191.33 25.4948 191.33 25.4948L193.093 25.4979C199.481 25.4979 199.481 29.9697 199.481 31.8796C199.481 33.4627 199.481 38.2612 193.093 38.2612ZM192.651 22.2973C192.607 22.4439 192.557 22.5868 192.514 22.7308C192.557 22.5873 192.614 22.4444 192.651 22.2973Z" fill="#109E92"/>
</g>
</g>
</g>
</g>
</g>
<defs>
<clipPath id="clip0_584_307">
<rect width="209" height="50.996" fill="white"/>
</clipPath>
<clipPath id="clip1_584_307">
<rect width="207.937" height="51.0534" fill="white" transform="translate(0.53125 -0.0288086)"/>
</clipPath>
<clipPath id="clip2_584_307">
<rect width="207.937" height="51.0534" fill="white" transform="translate(0.53125 -0.0288086)"/>
</clipPath>
<clipPath id="clip3_584_307">
<rect width="143.828" height="36.9417" fill="white" transform="translate(0.53125 7.0271)"/>
</clipPath>
<clipPath id="clip4_584_307">
<rect width="143.828" height="36.9417" fill="white" transform="translate(0.53125 7.0271)"/>
</clipPath>
<clipPath id="clip5_584_307">
<rect width="143.828" height="23.2171" fill="white" transform="translate(0.53125 7.0271)"/>
</clipPath>
<clipPath id="clip6_584_307">
<rect width="143.828" height="23.2171" fill="white" transform="translate(0.53125 7.0271)"/>
</clipPath>
<clipPath id="clip7_584_307">
<rect width="84.4416" height="8.24356" fill="white" transform="translate(59.918 35.7253)"/>
</clipPath>
<clipPath id="clip8_584_307">
<rect width="84.4416" height="8.24356" fill="white" transform="translate(59.918 35.7253)"/>
</clipPath>
<clipPath id="clip9_584_307">
<rect width="51.0534" height="51.0534" fill="white" transform="translate(154.81 -0.0288086)"/>
</clipPath>
<clipPath id="clip10_584_307">
<rect width="51.0534" height="51.0534" fill="white" transform="translate(154.81 -0.0288086)"/>
</clipPath>
</defs>
</svg>
