<svg width="359" height="311" viewBox="0 0 359 311" fill="none" xmlns="http://www.w3.org/2000/svg">
<path d="M193.419 311C284.422 311 358.193 269.04 358.193 217.28C358.193 165.521 284.422 123.561 193.419 123.561C102.417 123.561 28.6455 165.521 28.6455 217.28C28.6455 269.04 102.417 311 193.419 311Z" fill="#F5F5F5"/>
<path d="M297.943 260.893C319.704 260.893 337.346 249.832 337.346 236.188C337.346 222.545 319.704 211.484 297.943 211.484C276.181 211.484 258.54 222.545 258.54 236.188C258.54 249.832 276.181 260.893 297.943 260.893Z" fill="#E6E6E6"/>
<path d="M37.7932 164.475C37.3209 158.789 36.0083 153.205 33.8981 147.905C30.4247 139.341 23.777 130.738 16.1172 129.128C8.45744 127.517 5.22177 132.655 6.83193 137.715C8.22741 142.07 13.9167 145.689 18.2411 149.492C22.5656 153.295 30.6318 162.527 32.8707 171.368L37.1951 171.843L37.7932 164.475Z" fill="#39D4E8"/>
<g opacity="0.15">
<path opacity="0.15" d="M37.7932 164.475C37.3209 158.789 36.0083 153.205 33.8981 147.905C30.4247 139.341 23.777 130.738 16.1172 129.128C8.45744 127.517 5.22177 132.655 6.83193 137.715C8.22741 142.07 13.9167 145.689 18.2411 149.492C22.5656 153.295 30.6318 162.527 32.8707 171.368L37.1951 171.843L37.7932 164.475Z" fill="black"/>
</g>
<path d="M34.8258 168.446C34.7024 168.446 34.5837 168.398 34.495 168.313C34.4063 168.227 34.3544 168.11 34.3505 167.986C33.5454 145.659 11.7237 133.176 11.486 133.038C11.382 132.972 11.3071 132.869 11.2767 132.749C11.2463 132.63 11.2626 132.504 11.3223 132.396C11.3821 132.288 11.4807 132.207 11.5981 132.17C11.7155 132.132 11.8427 132.141 11.9538 132.195C12.1838 132.325 34.4885 145.076 35.3089 167.933C35.3131 168.059 35.2671 168.183 35.181 168.276C35.095 168.369 34.9756 168.425 34.8488 168.431L34.8258 168.446Z" fill="white"/>
<path d="M41.2357 203.778C41.2357 203.778 36.7732 206.6 29.7958 205.396C27.5395 205.096 25.4371 204.086 23.7922 202.513C21.9903 200.657 21.7066 198.786 21.2006 196.302C21.0612 195.264 20.706 194.266 20.1578 193.373C18.6243 191.318 15.68 191.357 13.1957 190.82C9.66868 190.053 6.42534 187.523 5.40557 184.065C4.38579 180.607 6.04197 176.397 9.38499 175.033L5.28289 172.403C4.00766 171.654 2.82841 170.753 1.77119 169.719C0.715885 168.665 0.085419 167.259 0 165.77C0 163.593 1.61784 161.645 3.61138 160.756C5.65346 159.967 7.86931 159.74 10.0291 160.096C12.2167 160.364 14.3671 160.878 16.4391 161.63C17.0037 161.885 17.6139 162.023 18.2332 162.036C19.0393 161.894 19.7947 161.545 20.4261 161.024C25.1186 157.957 32.7631 158.164 35.278 164.007C35.6461 164.866 35.8684 165.786 36.2671 166.629C37.724 169.78 41.8261 168.83 44.479 170.302C45.3116 170.829 46.018 171.533 46.548 172.364C47.0781 173.195 47.4188 174.132 47.546 175.109C48.0751 178.222 47.2086 181.772 46.6336 184.847C46.0585 187.922 45.3301 190.782 44.4943 193.695C43.8119 196.103 43.0605 198.487 42.2631 200.857C42.0944 201.347 41.7264 203.471 41.2357 203.778Z" fill="#39D4E8"/>
<path d="M44.0418 196.586C41.7032 190.152 37.8628 184.369 32.8396 179.718C32.7873 179.605 32.694 179.518 32.5789 179.472C31.1316 178.115 29.6139 176.836 28.0321 175.638C27.4344 171.498 27.9641 167.273 29.5656 163.409C29.6195 163.294 29.6255 163.162 29.5824 163.043C29.5392 162.924 29.4504 162.826 29.3355 162.772C29.2207 162.719 29.0891 162.713 28.9697 162.756C28.8504 162.799 28.753 162.888 28.6991 163.002C27.1111 166.728 26.5014 170.798 26.928 174.826C20.5012 170.191 13.3716 166.618 5.81174 164.245C5.68881 164.214 5.55869 164.232 5.44864 164.294C5.33858 164.357 5.25713 164.46 5.22135 164.582C5.20398 164.643 5.19896 164.707 5.20658 164.77C5.21421 164.832 5.23433 164.893 5.26576 164.948C5.29719 165.003 5.3393 165.051 5.3896 165.09C5.43991 165.128 5.49741 165.156 5.55871 165.172C5.75807 165.226 19.3602 169.09 30.616 178.974C23.7153 177.77 15.4881 181.098 15.1124 181.274C15.0068 181.314 14.9188 181.39 14.864 181.488C14.8092 181.587 14.7913 181.702 14.8134 181.812C14.8355 181.923 14.8963 182.022 14.9847 182.092C15.0732 182.162 15.1837 182.198 15.2964 182.194C15.3572 182.205 15.4196 182.205 15.4804 182.194C15.5724 182.148 25.2411 178.238 32.0728 180.362C37.0346 184.912 40.836 190.582 43.16 196.9C43.1921 196.995 43.2531 197.077 43.3343 197.134C43.4155 197.192 43.5127 197.223 43.6124 197.222H43.7734C43.8339 197.2 43.8892 197.165 43.9358 197.12C43.9825 197.075 44.0195 197.022 44.0446 196.962C44.0697 196.902 44.0824 196.838 44.0819 196.774C44.0814 196.709 44.0678 196.645 44.0418 196.586Z" fill="white"/>
<path d="M41.3887 203.111C41.4703 204.233 41.8155 205.32 42.3964 206.283C42.9774 207.246 43.7775 208.059 44.7317 208.655L138.237 262.618C139.27 263.144 140.413 263.417 141.572 263.417C142.731 263.417 143.874 263.144 144.907 262.618L272.824 188.765C273.829 188.231 274.671 187.433 275.258 186.457C275.845 185.482 276.155 184.364 276.155 183.225C276.155 182.087 275.845 180.969 275.258 179.993C274.671 179.017 273.829 178.22 272.824 177.686L179.334 123.707C178.3 123.185 177.157 122.913 175.999 122.913C174.84 122.913 173.698 123.185 172.663 123.707L44.7317 197.575C43.7781 198.17 42.9782 198.981 42.3973 199.943C41.8164 200.905 41.4708 201.99 41.3887 203.111Z" fill="#37474F"/>
<path d="M141.556 256.208V263.423C140.397 263.456 139.249 263.192 138.221 262.657L44.6932 208.655C43.7158 208.139 42.8924 207.374 42.3071 206.437C41.7217 205.5 41.3952 204.425 41.3609 203.32C41.3266 202.216 41.5857 201.122 42.1119 200.151C42.638 199.179 43.4122 198.365 44.3558 197.79C42.8606 198.863 42.9757 200.435 44.6932 201.424L138.236 255.403C139.257 255.949 140.399 256.226 141.556 256.208Z" fill="#263238"/>
<path d="M38.2602 197.69C37.3315 197.058 36.5645 196.217 36.021 195.234C35.4776 194.251 35.173 193.154 35.1318 192.032V80.4621C35.1948 79.3053 35.5296 78.1796 36.1091 77.1765C36.6886 76.1733 37.4965 75.3209 38.4672 74.6885L166.384 0.835435C167.377 0.308362 168.48 0.0225999 169.605 0.00128669C170.729 -0.0200265 171.842 0.223706 172.855 0.712753C173.784 1.34455 174.551 2.18592 175.094 3.1689C175.638 4.15188 175.942 5.24891 175.983 6.37135V117.941C175.92 119.098 175.586 120.223 175.006 121.226C174.427 122.23 173.619 123.082 172.648 123.714L44.7315 197.575C43.737 198.099 42.6335 198.383 41.5095 198.403C40.3856 198.423 39.2726 198.179 38.2602 197.69Z" fill="#455A64"/>
<path d="M44.3328 197.774C43.3756 198.204 42.3361 198.418 41.2872 198.404C40.2382 198.389 39.2051 198.146 38.2602 197.69C37.3315 197.058 36.5645 196.217 36.021 195.234C35.4776 194.251 35.173 193.154 35.1318 192.031V80.4621C35.1685 79.3015 35.5067 78.1705 36.1133 77.1804L42.3699 80.7841C41.7688 81.7767 41.431 82.9062 41.3885 84.0658V195.643C41.3885 197.621 42.6766 198.503 44.3328 197.774Z" fill="#263238"/>
<path d="M41.3887 84.0812V195.643C41.3887 197.774 42.9222 198.633 44.7317 197.575L172.648 123.714C173.619 123.082 174.427 122.23 175.006 121.226C175.586 120.223 175.921 119.098 175.983 117.941V6.37133C175.983 4.24744 174.488 3.38101 172.648 4.44679L44.7317 78.2999C43.7586 78.9322 42.9485 79.7854 42.3676 80.79C41.7867 81.7947 41.4513 82.9223 41.3887 84.0812Z" fill="#37474F"/>
<path d="M44.7316 201.424L138.236 255.403C139.271 255.925 140.413 256.197 141.572 256.197C142.73 256.197 143.873 255.925 144.907 255.403L272.824 181.55C274.671 180.484 274.671 178.759 272.824 177.716L179.334 123.737C178.3 123.216 177.157 122.944 175.999 122.944C174.84 122.944 173.698 123.216 172.663 123.737L44.7316 197.575C42.8837 198.633 42.8837 200.358 44.7316 201.424Z" fill="#455A64"/>
<path d="M46.526 84.4952L169.857 13.3027C170.961 12.6663 171.858 13.1877 171.858 14.4605V111.071C171.82 111.765 171.619 112.44 171.271 113.042C170.924 113.644 170.439 114.156 169.857 114.536L46.526 185.69C45.4142 186.327 44.5171 185.813 44.5171 184.533V87.9226C44.5598 87.2338 44.7639 86.5647 45.1128 85.9693C45.4618 85.374 45.9459 84.869 46.526 84.4952Z" fill="#FAFAFA"/>
<path d="M55.5811 198.534L174.32 129.971C174.836 129.707 175.407 129.569 175.987 129.569C176.567 129.569 177.139 129.707 177.655 129.971L183.728 133.475C183.927 133.545 184.1 133.675 184.222 133.848C184.344 134.02 184.41 134.226 184.41 134.437C184.41 134.649 184.344 134.855 184.222 135.027C184.1 135.2 183.927 135.33 183.728 135.4L64.9737 203.954C64.4576 204.219 63.886 204.357 63.3061 204.357C62.7261 204.357 62.1545 204.219 61.6384 203.954L55.5811 200.458C55.3817 200.388 55.209 200.258 55.0868 200.086C54.9646 199.913 54.8989 199.707 54.8989 199.496C54.8989 199.285 54.9646 199.078 55.0868 198.906C55.209 198.734 55.3817 198.604 55.5811 198.534Z" fill="#37474F"/>
<path d="M71.2303 207.573L189.969 139.019C190.486 138.758 191.057 138.622 191.636 138.622C192.216 138.622 192.787 138.758 193.304 139.019L230.66 160.587C230.859 160.657 231.032 160.787 231.154 160.96C231.277 161.132 231.342 161.338 231.342 161.549C231.342 161.761 231.277 161.967 231.154 162.139C231.032 162.312 230.859 162.442 230.66 162.512L112.06 230.967C111.542 231.23 110.969 231.366 110.388 231.366C109.807 231.366 109.235 231.23 108.717 230.967L71.2379 209.498C71.0346 209.433 70.8572 209.305 70.731 209.132C70.6049 208.96 70.5365 208.752 70.5357 208.538C70.5348 208.325 70.6015 208.117 70.7263 207.943C70.8511 207.77 71.0275 207.64 71.2303 207.573Z" fill="#263238"/>
<path d="M177.67 169.842L181.381 167.703C181.542 167.611 181.534 167.457 181.381 167.358L177.079 164.873C176.988 164.826 176.887 164.802 176.784 164.802C176.682 164.802 176.58 164.826 176.489 164.873L172.77 167.02C172.609 167.105 172.617 167.258 172.77 167.358L177.064 169.842C177.158 169.89 177.262 169.915 177.367 169.915C177.472 169.915 177.576 169.89 177.67 169.842ZM170.332 161.316L166.606 163.478C166.445 163.57 166.46 163.723 166.606 163.823L170.899 166.299C170.992 166.347 171.095 166.371 171.199 166.371C171.302 166.371 171.405 166.347 171.498 166.299L175.216 164.153C175.37 164.061 175.362 163.907 175.216 163.808L170.915 161.331C170.825 161.285 170.725 161.261 170.623 161.261C170.522 161.261 170.422 161.285 170.332 161.331V161.316ZM158.317 168.308L152.03 171.935C151.869 172.027 151.876 172.18 152.03 172.28L156.324 174.764C156.417 174.81 156.519 174.833 156.623 174.833C156.726 174.833 156.829 174.81 156.922 174.764L163.209 171.138C163.37 171.046 163.355 170.892 163.209 170.793L158.938 168.308C158.843 168.257 158.736 168.231 158.628 168.231C158.519 168.231 158.413 168.257 158.317 168.308ZM164.896 164.475L161.177 166.621C161.024 166.713 161.031 166.867 161.177 166.967L165.479 169.451C165.57 169.496 165.671 169.52 165.774 169.52C165.876 169.52 165.977 169.496 166.069 169.451L169.788 167.304C169.941 167.212 169.933 167.059 169.788 166.967L165.486 164.475C165.395 164.428 165.294 164.403 165.191 164.403C165.088 164.403 164.987 164.428 164.896 164.475ZM150.328 172.909L146.609 175.048C146.456 175.14 146.463 175.293 146.609 175.393L150.91 177.877C151.002 177.924 151.103 177.949 151.206 177.949C151.308 177.949 151.41 177.924 151.501 177.877L155.219 175.73C155.373 175.646 155.365 175.493 155.219 175.393L150.903 172.909C150.811 172.862 150.71 172.837 150.608 172.837C150.505 172.837 150.404 172.862 150.312 172.909H150.328ZM144.891 176.045L141.18 178.192C141.019 178.276 141.027 178.429 141.18 178.529L145.482 181.013C145.574 181.059 145.675 181.082 145.777 181.082C145.879 181.082 145.98 181.059 146.072 181.013L149.791 178.866C149.952 178.774 149.937 178.621 149.791 178.521L145.497 176.037C145.402 175.985 145.296 175.957 145.188 175.956C145.079 175.954 144.972 175.98 144.876 176.029L144.891 176.045ZM161.806 186.135L165.525 183.988C165.678 183.896 165.67 183.743 165.525 183.643L161.223 181.167C161.132 181.12 161.031 181.095 160.928 181.095C160.825 181.095 160.724 181.12 160.633 181.167L156.914 183.314C156.753 183.406 156.768 183.559 156.914 183.659L161.208 186.135C161.3 186.177 161.4 186.198 161.501 186.195C161.602 186.193 161.701 186.167 161.791 186.12L161.806 186.135ZM156.37 189.271L160.088 187.124C160.249 187.032 160.234 186.879 160.088 186.779L155.795 184.303C155.702 184.256 155.599 184.231 155.496 184.231C155.392 184.231 155.289 184.256 155.196 184.303L151.478 186.45C151.324 186.542 151.332 186.695 151.478 186.795L155.779 189.279C155.871 189.318 155.97 189.337 156.069 189.333C156.169 189.329 156.266 189.302 156.354 189.256L156.37 189.271ZM150.933 192.407L154.652 190.26C154.813 190.168 154.805 190.015 154.652 189.923L150.358 187.439C150.267 187.392 150.166 187.367 150.063 187.367C149.96 187.367 149.859 187.392 149.768 187.439L146.049 189.586C145.888 189.678 145.896 189.831 146.049 189.931L150.351 192.415C150.441 192.453 150.539 192.471 150.637 192.467C150.735 192.463 150.831 192.437 150.918 192.392L150.933 192.407ZM145.505 195.543L149.224 193.396C149.377 193.312 149.369 193.159 149.224 193.059L144.884 190.544C144.792 190.497 144.691 190.472 144.589 190.472C144.486 190.472 144.385 190.497 144.293 190.544L140.575 192.683C140.414 192.775 140.429 192.929 140.575 193.028L144.868 195.513C144.963 195.566 145.069 195.595 145.177 195.598C145.285 195.601 145.393 195.577 145.489 195.528L145.505 195.543ZM172.249 173.016L175.968 170.869C176.121 170.777 176.113 170.624 175.968 170.524L171.666 168.04C171.574 167.995 171.473 167.971 171.371 167.971C171.269 167.971 171.168 167.995 171.076 168.04L167.357 170.187C167.204 170.279 167.211 170.432 167.357 170.524L171.659 173.008C171.749 173.05 171.847 173.071 171.947 173.07C172.046 173.068 172.144 173.045 172.234 173.001L172.249 173.016ZM167.234 182.984L175.531 178.192C175.692 178.1 175.676 177.946 175.531 177.854L165.072 171.828C164.98 171.781 164.877 171.756 164.773 171.756C164.669 171.756 164.567 171.781 164.474 171.828L160.188 174.304C160.027 174.396 160.035 174.55 160.188 174.649L165.709 177.839C165.885 177.939 165.893 178.092 165.709 178.176L162.281 180.162C162.12 180.254 162.128 180.408 162.281 180.507L166.583 182.984C166.68 183.039 166.789 183.068 166.901 183.068C167.012 183.068 167.122 183.039 167.219 182.984H167.234ZM139.463 179.15L135.744 181.297C135.583 181.389 135.598 181.542 135.744 181.634L140.038 184.119C140.131 184.166 140.233 184.19 140.337 184.19C140.441 184.19 140.543 184.166 140.636 184.119L144.347 181.972C144.508 181.88 144.5 181.726 144.347 181.627L140.046 179.142C139.951 179.099 139.848 179.079 139.744 179.083C139.64 179.087 139.539 179.115 139.448 179.165L139.463 179.15ZM134.027 182.286L130.308 184.433C130.155 184.525 130.162 184.678 130.308 184.778L134.609 187.255C134.701 187.302 134.802 187.326 134.905 187.326C135.007 187.326 135.108 187.302 135.2 187.255L138.918 185.108C139.072 185.016 139.064 184.862 138.918 184.763L134.617 182.286C134.523 182.239 134.418 182.215 134.312 182.218C134.207 182.221 134.103 182.249 134.011 182.301L134.027 182.286ZM106.876 217.464C106.968 217.51 107.069 217.533 107.171 217.533C107.274 217.533 107.375 217.51 107.466 217.464L111.185 215.318C111.346 215.226 111.339 215.072 111.185 214.98L106.891 212.496C106.798 212.451 106.696 212.427 106.592 212.427C106.489 212.427 106.387 212.451 106.293 212.496L102.582 214.643C102.421 214.735 102.429 214.888 102.582 214.988L106.876 217.464ZM90.5444 207.412L86.8256 209.559C86.6723 209.651 86.68 209.805 86.8256 209.904L91.1271 212.381C91.2184 212.428 91.3196 212.453 91.4223 212.453C91.525 212.453 91.6262 212.428 91.7175 212.381L95.4362 210.234C95.5896 210.142 95.5819 209.989 95.4362 209.889L91.1348 207.412C91.0435 207.365 90.9423 207.341 90.8396 207.341C90.7369 207.341 90.6357 207.365 90.5444 207.412ZM99.293 214.773C99.3848 214.819 99.4858 214.842 99.5882 214.842C99.6905 214.842 99.7915 214.819 99.8834 214.773L103.602 212.626C103.755 212.534 103.748 212.381 103.602 212.281L99.3006 209.797C99.2093 209.75 99.1081 209.725 99.0054 209.725C98.9027 209.725 98.8015 209.75 98.7102 209.797L94.9915 211.944C94.8382 212.036 94.8458 212.182 94.9915 212.281L99.293 214.773ZM116.453 219.374L120.171 217.227C120.333 217.142 120.317 216.989 120.171 216.889L115.878 214.405C115.785 214.358 115.683 214.333 115.579 214.333C115.475 214.333 115.372 214.358 115.28 214.405L111.561 216.544C111.408 216.636 111.415 216.79 111.561 216.889L115.862 219.374C115.953 219.422 116.054 219.448 116.157 219.449C116.259 219.45 116.361 219.427 116.453 219.381V219.374ZM110.426 222.502C110.519 222.547 110.622 222.571 110.725 222.571C110.829 222.571 110.931 222.547 111.024 222.502L114.735 220.355C114.896 220.263 114.889 220.11 114.735 220.01L110.434 217.526C110.343 217.479 110.241 217.454 110.139 217.454C110.036 217.454 109.935 217.479 109.843 217.526L106.109 219.68C105.948 219.765 105.956 219.918 106.109 220.018L110.426 222.502ZM95.9806 204.253L92.2619 206.4C92.1009 206.492 92.1085 206.646 92.2619 206.738L96.5557 209.222C96.647 209.269 96.7482 209.294 96.8509 209.294C96.9536 209.294 97.0548 209.269 97.1461 209.222L100.865 207.075C101.026 206.983 101.018 206.83 100.865 206.73L96.5633 204.246C96.4714 204.204 96.3712 204.184 96.2702 204.186C96.1693 204.189 96.0702 204.215 95.9806 204.261V204.253ZM123.146 188.566L119.428 190.713C119.267 190.805 119.282 190.958 119.428 191.058L123.722 193.534C123.814 193.581 123.917 193.606 124.021 193.606C124.124 193.606 124.227 193.581 124.32 193.534L128.038 191.387C128.192 191.295 128.184 191.142 128.038 191.042L123.737 188.566C123.645 188.52 123.543 188.497 123.441 188.498C123.338 188.499 123.237 188.525 123.146 188.573V188.566ZM101.432 201.125L97.7135 203.272C97.5601 203.364 97.5678 203.517 97.7135 203.609L102.015 206.094C102.106 206.141 102.207 206.165 102.31 206.165C102.413 206.165 102.514 206.141 102.605 206.094L106.324 203.947C106.485 203.855 106.47 203.701 106.324 203.602L102.03 201.117C101.937 201.073 101.834 201.051 101.73 201.052C101.627 201.054 101.525 201.078 101.432 201.125ZM128.598 185.437L124.887 187.584C124.726 187.676 124.734 187.83 124.887 187.929L129.188 190.406C129.28 190.453 129.381 190.478 129.484 190.478C129.586 190.478 129.688 190.453 129.779 190.406L133.498 188.259C133.659 188.167 133.651 188.014 133.498 187.914L129.204 185.437C129.107 185.385 128.999 185.358 128.889 185.358C128.78 185.358 128.672 185.385 128.575 185.437H128.598ZM117.733 191.709L114.015 193.856C113.861 193.948 113.869 194.102 114.015 194.201L118.301 196.678C118.392 196.723 118.493 196.747 118.596 196.747C118.698 196.747 118.799 196.723 118.891 196.678L122.61 194.531C122.771 194.439 122.755 194.286 122.61 194.194L118.301 191.725C118.211 191.675 118.11 191.648 118.007 191.645C117.905 191.643 117.803 191.665 117.71 191.709H117.733ZM112.305 194.845L108.586 196.992C108.425 197.084 108.433 197.238 108.586 197.337L112.887 199.822C112.979 199.869 113.08 199.893 113.183 199.893C113.285 199.893 113.387 199.869 113.478 199.822L117.197 197.675C117.358 197.583 117.35 197.429 117.197 197.337L112.895 194.853C112.801 194.803 112.696 194.776 112.589 194.775C112.483 194.773 112.377 194.798 112.282 194.845H112.305ZM106.868 197.989L103.15 200.136C102.989 200.22 103.004 200.374 103.15 200.473L107.443 202.958C107.536 203.005 107.639 203.029 107.743 203.029C107.846 203.029 107.949 203.005 108.042 202.958L111.76 200.818C111.914 200.726 111.906 200.573 111.76 200.473L107.459 197.989C107.365 197.938 107.259 197.911 107.152 197.911C107.045 197.911 106.94 197.938 106.845 197.989H106.868ZM134.64 201.823L138.359 199.676C138.52 199.584 138.512 199.431 138.359 199.331L134.057 196.847C133.965 196.801 133.864 196.778 133.762 196.778C133.66 196.778 133.559 196.801 133.467 196.847L129.748 198.994C129.587 199.086 129.595 199.239 129.748 199.331L134.05 201.815C134.138 201.857 134.236 201.879 134.334 201.877C134.433 201.876 134.529 201.852 134.617 201.808L134.64 201.823ZM182.362 154.415L178.644 156.562C178.49 156.654 178.498 156.807 178.644 156.899L182.945 159.383C183.036 159.43 183.138 159.455 183.24 159.455C183.343 159.455 183.444 159.43 183.535 159.383L187.254 157.236C187.415 157.144 187.4 156.991 187.254 156.891L182.96 154.407C182.865 154.357 182.759 154.33 182.651 154.329C182.543 154.327 182.436 154.352 182.339 154.4L182.362 154.415ZM175.784 158.21L172.073 160.357C171.912 160.449 171.919 160.602 172.073 160.702L176.374 163.179C176.465 163.226 176.567 163.25 176.669 163.25C176.772 163.25 176.873 163.226 176.964 163.179L180.683 161.032C180.844 160.94 180.837 160.787 180.683 160.687L176.389 158.21C176.294 158.156 176.187 158.125 176.077 158.123C175.967 158.12 175.858 158.145 175.761 158.195L175.784 158.21ZM187.799 151.31L184.08 153.456C183.919 153.541 183.934 153.694 184.08 153.794L188.374 156.278C188.467 156.323 188.569 156.347 188.673 156.347C188.776 156.347 188.879 156.323 188.972 156.278L192.69 154.131C192.844 154.039 192.836 153.886 192.69 153.786L188.389 151.302C188.298 151.245 188.194 151.212 188.087 151.205C187.98 151.198 187.873 151.218 187.776 151.264L187.799 151.31ZM159.674 180.308L163.393 178.161C163.546 178.069 163.539 177.916 163.393 177.816L159.092 175.339C159 175.292 158.899 175.268 158.796 175.268C158.694 175.268 158.592 175.292 158.501 175.339L154.782 177.486C154.629 177.578 154.637 177.732 154.782 177.831L159.084 180.308C159.176 180.344 159.275 180.359 159.373 180.351C159.471 180.343 159.567 180.313 159.651 180.262L159.674 180.308ZM193.825 148.181C193.733 148.134 193.63 148.109 193.526 148.109C193.422 148.109 193.32 148.134 193.227 148.181L189.516 150.32C189.355 150.412 189.363 150.566 189.516 150.665L193.818 153.15C193.909 153.197 194.01 153.221 194.113 153.221C194.215 153.221 194.317 153.197 194.408 153.15L198.127 151.003C198.288 150.918 198.28 150.765 198.127 150.665L193.825 148.181ZM140.076 198.71L143.795 196.571C143.956 196.479 143.941 196.325 143.795 196.226L139.501 193.741C139.409 193.694 139.306 193.67 139.202 193.67C139.098 193.67 138.996 193.694 138.903 193.741L135.169 195.835C135.016 195.919 135.023 196.072 135.169 196.172L139.471 198.656C139.56 198.703 139.66 198.728 139.761 198.73C139.862 198.731 139.962 198.708 140.053 198.664L140.076 198.71ZM206.707 160.242L210.425 158.095C210.586 158.003 210.571 157.85 210.425 157.758L206.132 155.274C206.039 155.226 205.936 155.202 205.832 155.202C205.729 155.202 205.626 155.226 205.533 155.274L201.822 157.42C201.661 157.513 201.669 157.666 201.822 157.766L206.124 160.25C206.215 160.282 206.313 160.294 206.41 160.285C206.506 160.276 206.6 160.245 206.684 160.196L206.707 160.242ZM195.136 159.836L198.855 157.689C199.008 157.597 199.001 157.444 198.855 157.344L194.554 154.867C194.462 154.82 194.361 154.796 194.258 154.796C194.156 154.796 194.055 154.82 193.963 154.867L190.245 157.014C190.083 157.106 190.099 157.259 190.245 157.359L194.538 159.836C194.631 159.872 194.732 159.887 194.831 159.879C194.931 159.871 195.027 159.841 195.113 159.79L195.136 159.836ZM199.967 151.731C199.874 151.684 199.772 151.66 199.668 151.66C199.564 151.66 199.461 151.684 199.369 151.731L195.658 153.878C195.497 153.97 195.504 154.123 195.658 154.223L199.959 156.7C200.05 156.747 200.152 156.771 200.254 156.771C200.357 156.771 200.458 156.747 200.55 156.7L204.268 154.553C204.429 154.461 204.422 154.308 204.268 154.208L199.967 151.731ZM201.109 151.064L211.552 157.098C211.644 157.144 211.745 157.167 211.848 157.167C211.95 157.167 212.051 157.144 212.143 157.098L215.862 154.952C216.015 154.86 216.007 154.706 215.862 154.614L205.418 148.58C205.327 148.535 205.226 148.511 205.123 148.511C205.021 148.511 204.92 148.535 204.828 148.58L201.109 150.727C200.91 150.773 200.918 150.926 201.109 151.018V151.064ZM188.504 157.965L184.785 160.112C184.632 160.204 184.64 160.357 184.785 160.457L189.087 162.933C189.178 162.98 189.279 163.005 189.382 163.005C189.485 163.005 189.586 162.98 189.677 162.933L193.396 160.787C193.557 160.695 193.542 160.541 193.396 160.441L189.102 157.965C189.008 157.91 188.903 157.88 188.794 157.876C188.686 157.872 188.578 157.894 188.481 157.942L188.504 157.965ZM147.59 181.55L143.872 183.697C143.711 183.789 143.726 183.942 143.872 184.042L148.165 186.526C148.258 186.573 148.361 186.598 148.464 186.598C148.568 186.598 148.671 186.573 148.763 186.526L152.475 184.379C152.636 184.287 152.628 184.142 152.475 184.042L148.204 181.565C148.11 181.514 148.006 181.486 147.899 181.483C147.792 181.48 147.686 181.503 147.59 181.55ZM200.657 163.324C200.75 163.372 200.852 163.396 200.956 163.396C201.06 163.396 201.162 163.372 201.255 163.324L204.974 161.178C205.127 161.093 205.119 160.94 204.974 160.84L200.649 158.341C200.557 158.295 200.456 158.272 200.354 158.272C200.252 158.272 200.151 158.295 200.059 158.341L196.34 160.487C196.179 160.579 196.194 160.733 196.34 160.833L200.657 163.324ZM153.019 178.414L149.308 180.561C149.147 180.653 149.155 180.806 149.308 180.906L153.609 183.39C153.701 183.436 153.802 183.459 153.905 183.459C154.007 183.459 154.108 183.436 154.2 183.39L157.918 181.243C158.079 181.151 158.072 180.998 157.918 180.906L153.625 178.422C153.532 178.372 153.428 178.346 153.323 178.344C153.217 178.343 153.113 178.367 153.019 178.414ZM112.297 214.313C112.389 214.358 112.49 214.382 112.592 214.382C112.695 214.382 112.796 214.358 112.887 214.313L116.606 212.166C116.759 212.074 116.752 211.921 116.606 211.829L112.305 209.345C112.213 209.298 112.112 209.273 112.009 209.273C111.907 209.273 111.806 209.298 111.714 209.345L107.996 211.492C107.842 211.584 107.85 211.737 107.996 211.837L112.297 214.313ZM104.123 206.646L100.405 208.785C100.244 208.877 100.251 209.03 100.405 209.13L104.699 211.614C104.791 211.661 104.894 211.686 104.998 211.686C105.101 211.686 105.204 211.661 105.297 211.614L109.008 209.467C109.169 209.383 109.161 209.23 109.008 209.13L104.714 206.646C104.623 206.599 104.521 206.574 104.419 206.574C104.316 206.574 104.215 206.599 104.123 206.646ZM118.301 211.246L122.012 209.099C122.173 209.007 122.165 208.854 122.012 208.754L117.71 206.278C117.619 206.231 117.518 206.206 117.415 206.206C117.312 206.206 117.211 206.231 117.12 206.278L113.401 208.425C113.24 208.517 113.248 208.67 113.401 208.77L117.695 211.246C117.789 211.295 117.892 211.32 117.998 211.32C118.103 211.32 118.207 211.295 118.301 211.246ZM123.729 208.11L127.448 205.963C127.609 205.871 127.594 205.718 127.448 205.618L123.154 203.142C123.062 203.095 122.959 203.07 122.855 203.07C122.751 203.07 122.649 203.095 122.556 203.142L118.837 205.289C118.684 205.381 118.692 205.534 118.837 205.634L123.139 208.11C123.236 208.157 123.342 208.178 123.449 208.173C123.557 208.167 123.661 208.135 123.752 208.079L123.729 208.11ZM129.165 204.974L132.884 202.827C133.038 202.735 133.03 202.582 132.884 202.482L128.583 199.998C128.491 199.953 128.39 199.929 128.287 199.929C128.185 199.929 128.084 199.953 127.992 199.998L124.274 202.145C124.113 202.237 124.128 202.39 124.274 202.482L128.567 204.967C128.665 205.014 128.772 205.037 128.881 205.033C128.989 205.029 129.095 204.998 129.188 204.944L129.165 204.974ZM109.529 203.54L105.81 205.687C105.657 205.779 105.665 205.933 105.81 206.032L110.112 208.517C110.204 208.562 110.305 208.585 110.407 208.585C110.509 208.585 110.61 208.562 110.702 208.517L114.421 206.37C114.582 206.278 114.567 206.124 114.421 206.032L110.127 203.548C110.04 203.5 109.943 203.472 109.844 203.465C109.744 203.459 109.645 203.474 109.552 203.51L109.529 203.54ZM114.965 200.404L111.247 202.551C111.086 202.643 111.101 202.797 111.247 202.896L115.54 205.381C115.633 205.426 115.736 205.45 115.839 205.45C115.943 205.45 116.045 205.426 116.138 205.381L119.857 203.234C120.01 203.142 120.003 202.988 119.857 202.896L115.556 200.412C115.47 200.363 115.375 200.333 115.276 200.327C115.178 200.32 115.079 200.336 114.988 200.374L114.965 200.404ZM136.703 187.83L132.992 189.977C132.83 190.069 132.838 190.222 132.992 190.314L137.293 192.798C137.384 192.845 137.485 192.87 137.588 192.87C137.691 192.87 137.792 192.845 137.883 192.798L141.602 190.651C141.763 190.559 141.755 190.406 141.602 190.306L137.308 187.822C137.214 187.777 137.11 187.754 137.005 187.755C136.899 187.756 136.796 187.782 136.703 187.83ZM131.274 190.966L127.555 193.113C127.394 193.205 127.41 193.358 127.555 193.45L131.849 195.934C131.942 195.981 132.044 196.006 132.148 196.006C132.252 196.006 132.354 195.981 132.447 195.934L136.166 193.787C136.319 193.695 136.312 193.542 136.166 193.442L131.864 190.958C131.774 190.916 131.675 190.895 131.576 190.897C131.476 190.898 131.379 190.922 131.289 190.966H131.274ZM142.139 184.694L138.42 186.841C138.267 186.925 138.274 187.078 138.42 187.178L142.722 189.662C142.813 189.709 142.914 189.734 143.017 189.734C143.119 189.734 143.221 189.709 143.312 189.662L147.031 187.523C147.184 187.431 147.176 187.278 147.031 187.178L142.729 184.694C142.64 184.649 142.541 184.626 142.442 184.626C142.342 184.626 142.243 184.649 142.154 184.694H142.139ZM120.409 197.238L116.69 199.385C116.529 199.477 116.537 199.63 116.69 199.73L120.992 202.206C121.083 202.253 121.184 202.278 121.287 202.278C121.39 202.278 121.491 202.253 121.582 202.206L125.301 200.059C125.462 199.967 125.454 199.814 125.301 199.714L121 197.238C120.91 197.193 120.812 197.17 120.712 197.17C120.612 197.17 120.514 197.193 120.425 197.238H120.409ZM125.838 194.102L122.119 196.249C121.966 196.341 121.973 196.494 122.119 196.594L126.42 199.07C126.512 199.117 126.613 199.142 126.716 199.142C126.818 199.142 126.92 199.117 127.011 199.07L130.73 196.923C130.891 196.831 130.875 196.678 130.73 196.578L126.428 194.102C126.339 194.057 126.24 194.034 126.141 194.034C126.041 194.034 125.942 194.057 125.853 194.102H125.838ZM121.874 216.245L125.592 214.098C125.746 214.006 125.738 213.853 125.592 213.761L121.283 211.246C121.192 211.199 121.091 211.175 120.988 211.175C120.885 211.175 120.784 211.199 120.693 211.246L116.974 213.393C116.813 213.485 116.828 213.638 116.974 213.738L121.268 216.222C121.362 216.275 121.468 216.305 121.576 216.309C121.684 216.313 121.791 216.291 121.889 216.245H121.874ZM89.9847 213.025L85.6909 210.548C85.5982 210.501 85.4958 210.477 85.3918 210.477C85.2879 210.477 85.1854 210.501 85.0928 210.548L81.3741 212.695C81.2207 212.787 81.2284 212.941 81.3741 213.04L85.6755 215.517C85.7668 215.564 85.868 215.589 85.9707 215.589C86.0734 215.589 86.1746 215.564 86.2659 215.517L89.9847 213.37C90.184 213.278 90.1687 213.125 90 213.025H89.9847ZM98.1275 215.417L93.8337 212.933C93.7406 212.888 93.6383 212.864 93.5347 212.864C93.4311 212.864 93.3288 212.888 93.2357 212.933L87.5157 216.23C87.3624 216.322 87.37 216.475 87.5157 216.575L91.8172 219.059C91.9085 219.106 92.0097 219.131 92.1124 219.131C92.2151 219.131 92.3163 219.106 92.4076 219.059L98.1275 215.762C98.3652 215.67 98.3115 215.517 98.1428 215.417H98.1275ZM83.3906 208.233L79.0968 205.749C79.0042 205.701 78.9017 205.677 78.7978 205.677C78.6939 205.677 78.5914 205.701 78.4988 205.749L73.8983 208.394C73.7449 208.486 73.7526 208.639 73.8983 208.731L78.1997 211.215C78.291 211.263 78.3922 211.287 78.4949 211.287C78.5976 211.287 78.6989 211.263 78.7901 211.215L83.3906 208.57C83.59 208.478 83.5746 208.325 83.406 208.233H83.3906ZM86.9023 206.201C86.9936 206.248 87.0948 206.273 87.1975 206.273C87.3002 206.273 87.4014 206.248 87.4927 206.201L91.2114 204.054C91.3648 203.962 91.3571 203.809 91.2114 203.709L86.9023 201.278C86.811 201.231 86.7098 201.207 86.6071 201.207C86.5044 201.207 86.4032 201.231 86.3119 201.278L82.5932 203.425C82.4399 203.517 82.4475 203.671 82.5932 203.77L86.9023 206.201ZM105.718 218.147L101.432 215.655C101.341 215.608 101.24 215.583 101.137 215.583C101.034 215.583 100.933 215.608 100.842 215.655L93.688 219.78C93.5347 219.872 93.5424 220.025 93.688 220.125L97.9895 222.602C98.0808 222.649 98.182 222.673 98.2847 222.673C98.3874 222.673 98.4886 222.649 98.5799 222.602L105.726 218.477C105.895 218.392 105.887 218.239 105.718 218.147ZM109.284 223.177L104.982 220.692C104.89 220.647 104.789 220.624 104.687 220.624C104.585 220.624 104.484 220.647 104.392 220.692L99.7913 223.33C99.638 223.422 99.6457 223.575 99.7913 223.675L104.093 226.159C104.185 226.205 104.286 226.228 104.388 226.228C104.49 226.228 104.591 226.205 104.683 226.159L109.284 223.522C109.46 223.422 109.452 223.269 109.284 223.169V223.177ZM127.31 182.877C127.403 182.922 127.505 182.946 127.609 182.946C127.713 182.946 127.815 182.922 127.908 182.877L131.627 180.73C131.78 180.638 131.772 180.484 131.627 180.392L127.325 177.908C127.234 177.861 127.133 177.836 127.03 177.836C126.927 177.836 126.826 177.861 126.735 177.908L123.016 180.055C122.855 180.147 122.87 180.3 123.016 180.4L127.31 182.877ZM116.445 189.149C116.538 189.196 116.64 189.22 116.744 189.22C116.848 189.22 116.951 189.196 117.043 189.149L120.754 187.002C120.915 186.917 120.908 186.764 120.754 186.664L116.453 184.18C116.361 184.135 116.26 184.111 116.158 184.111C116.055 184.111 115.954 184.135 115.862 184.18L112.167 186.327C112.006 186.419 112.013 186.572 112.167 186.672L116.445 189.149ZM92.3462 203.057C92.4389 203.104 92.5413 203.129 92.6453 203.129C92.7492 203.129 92.8517 203.104 92.9443 203.057L96.6554 200.91C96.8164 200.818 96.8087 200.665 96.6554 200.565L92.3539 198.089C92.2626 198.042 92.1614 198.017 92.0587 198.017C91.956 198.017 91.8548 198.042 91.7635 198.089L88.0448 200.236C87.8838 200.328 87.8991 200.481 88.0448 200.581L92.3462 203.057ZM121.881 186.013C121.973 186.058 122.074 186.081 122.177 186.081C122.279 186.081 122.38 186.058 122.472 186.013L126.19 183.866C126.351 183.774 126.336 183.62 126.19 183.528L121.897 181.044C121.804 180.997 121.702 180.972 121.598 180.972C121.494 180.972 121.391 180.997 121.299 181.044L117.58 183.191C117.427 183.283 117.434 183.436 117.58 183.536L121.881 186.013ZM111.017 192.284C111.108 192.332 111.209 192.356 111.312 192.356C111.414 192.356 111.516 192.332 111.607 192.284L115.326 190.145C115.479 190.053 115.471 189.9 115.326 189.8L111.024 187.316C110.933 187.269 110.832 187.244 110.729 187.244C110.626 187.244 110.525 187.269 110.434 187.316L106.715 189.463C106.562 189.547 106.569 189.701 106.715 189.8L111.017 192.284ZM112.274 223.568C112.181 223.521 112.079 223.496 111.975 223.496C111.871 223.496 111.769 223.521 111.676 223.568L105.956 226.872C105.803 226.964 105.81 227.118 105.956 227.21L110.257 229.694C110.349 229.741 110.45 229.766 110.553 229.766C110.655 229.766 110.757 229.741 110.848 229.694L116.568 226.389C116.721 226.297 116.713 226.144 116.568 226.044L112.274 223.568ZM103.219 196.785C103.311 196.831 103.412 196.854 103.514 196.854C103.616 196.854 103.717 196.831 103.809 196.785L107.528 194.638C107.681 194.546 107.674 194.393 107.528 194.293L103.226 191.809C103.135 191.764 103.034 191.74 102.931 191.74C102.829 191.74 102.728 191.764 102.636 191.809L98.9173 193.956C98.7639 194.048 98.7716 194.201 98.9173 194.293L103.219 196.785ZM97.7825 199.921C97.8738 199.968 97.975 199.993 98.0777 199.993C98.1804 199.993 98.2816 199.968 98.3729 199.921L102.092 197.774C102.253 197.682 102.245 197.529 102.092 197.429L97.7978 194.945C97.7047 194.9 97.6024 194.876 97.4988 194.876C97.3951 194.876 97.2929 194.9 97.1997 194.945L93.4887 197.092C93.3277 197.184 93.3353 197.337 93.4887 197.429L97.7825 199.921ZM212.933 165.418C212.841 165.371 212.74 165.346 212.637 165.346C212.535 165.346 212.433 165.371 212.342 165.418L203.187 170.701C203.034 170.793 203.042 170.946 203.187 171.046L207.489 173.53C207.58 173.575 207.681 173.599 207.784 173.599C207.886 173.599 207.987 173.575 208.079 173.53L217.249 168.308C217.41 168.216 217.403 168.063 217.249 167.971L212.933 165.418ZM200.918 172.318C200.826 172.273 200.725 172.25 200.622 172.25C200.52 172.25 200.419 172.273 200.327 172.318L196.609 174.465C196.455 174.557 196.463 174.711 196.609 174.803L200.91 177.287C201.002 177.332 201.103 177.356 201.205 177.356C201.308 177.356 201.409 177.332 201.5 177.287L205.219 175.14C205.372 175.048 205.365 174.895 205.219 174.795L200.918 172.318ZM127.31 213.04L131.029 210.893C131.19 210.801 131.182 210.648 131.029 210.556L126.735 208.179C126.644 208.132 126.542 208.108 126.44 208.108C126.337 208.108 126.236 208.132 126.144 208.179L122.426 210.326C122.265 210.418 122.272 210.571 122.426 210.671L126.727 213.155C126.822 213.194 126.925 213.209 127.028 213.201C127.13 213.193 127.229 213.162 127.318 213.109L127.31 213.04ZM190.045 178.598C189.954 178.551 189.853 178.526 189.75 178.526C189.647 178.526 189.546 178.551 189.455 178.598L185.736 180.745C185.575 180.837 185.59 180.99 185.736 181.09L190.03 183.567C190.122 183.614 190.225 183.638 190.329 183.638C190.433 183.638 190.535 183.614 190.628 183.567L194.347 181.42C194.5 181.328 194.492 181.174 194.347 181.075L190.045 178.598ZM218.361 162.251C218.269 162.204 218.166 162.179 218.062 162.179C217.958 162.179 217.856 162.204 217.763 162.251L214.044 164.398C213.891 164.49 213.899 164.643 214.044 164.743L218.346 167.22C218.437 167.267 218.538 167.291 218.641 167.291C218.744 167.291 218.845 167.267 218.936 167.22L222.655 165.073C222.816 164.981 222.801 164.827 222.655 164.728L218.361 162.251ZM228.091 161.592L217.648 155.565C217.557 155.518 217.456 155.493 217.353 155.493C217.25 155.493 217.149 155.518 217.058 155.565L213.339 157.712C213.178 157.796 213.193 157.95 213.339 158.049L223.774 164.076C223.867 164.123 223.969 164.148 224.073 164.148C224.177 164.148 224.28 164.123 224.372 164.076L228.091 161.929C228.275 161.914 228.268 161.76 228.099 161.661L228.091 161.592ZM169.742 190.314C169.65 190.269 169.549 190.245 169.446 190.245C169.344 190.245 169.243 190.269 169.151 190.314L164.551 192.952C164.39 193.044 164.405 193.197 164.551 193.297L168.845 195.781C168.938 195.826 169.04 195.85 169.144 195.85C169.247 195.85 169.35 195.826 169.443 195.781L174.043 193.143C174.196 193.051 174.189 192.898 174.043 192.798L169.742 190.314ZM183.474 182.462C183.383 182.415 183.282 182.391 183.179 182.391C183.076 182.391 182.975 182.415 182.884 182.462L177.164 185.767C177.01 185.859 177.018 186.013 177.164 186.112L181.465 188.589C181.557 188.636 181.658 188.66 181.76 188.66C181.863 188.66 181.964 188.636 182.056 188.589L187.776 185.284C187.929 185.192 187.921 185.039 187.776 184.947L183.474 182.462ZM157.167 197.652C157.076 197.605 156.975 197.58 156.872 197.58C156.769 197.58 156.668 197.605 156.577 197.652L125.976 215.287C125.815 215.379 125.83 215.532 125.976 215.632L130.27 218.116C130.363 218.162 130.465 218.185 130.569 218.185C130.672 218.185 130.774 218.162 130.868 218.116L161.461 200.481C161.622 200.389 161.614 200.236 161.461 200.144L157.167 197.652ZM124.856 216.307C124.764 216.26 124.661 216.235 124.557 216.235C124.453 216.235 124.351 216.26 124.258 216.307L119.658 218.944C119.504 219.036 119.512 219.19 119.658 219.289L123.959 221.766C124.05 221.813 124.152 221.838 124.254 221.838C124.357 221.838 124.458 221.813 124.55 221.766L129.15 219.121C129.311 219.036 129.296 218.883 129.15 218.783L124.856 216.307ZM163.462 194.017C163.369 193.97 163.267 193.946 163.163 193.946C163.059 193.946 162.957 193.97 162.864 194.017L158.263 196.655C158.102 196.747 158.11 196.9 158.263 197L162.565 199.477C162.656 199.524 162.757 199.548 162.86 199.548C162.963 199.548 163.064 199.524 163.155 199.477L167.756 196.831C167.917 196.747 167.901 196.594 167.756 196.494L163.462 194.017ZM118.561 219.941C118.47 219.894 118.369 219.869 118.266 219.869C118.163 219.869 118.062 219.894 117.971 219.941L113.37 222.586C113.209 222.678 113.225 222.832 113.37 222.931L117.664 225.408C117.757 225.455 117.859 225.48 117.963 225.48C118.067 225.48 118.17 225.455 118.262 225.408L122.863 222.763C123.024 222.671 123.016 222.517 122.863 222.425L118.561 219.941ZM176.067 186.756C175.975 186.709 175.872 186.685 175.768 186.685C175.664 186.685 175.562 186.709 175.469 186.756L170.869 189.402C170.708 189.494 170.715 189.647 170.869 189.739L175.17 192.223C175.262 192.268 175.363 192.292 175.465 192.292C175.568 192.292 175.669 192.268 175.761 192.223L180.361 189.578C180.522 189.486 180.507 189.333 180.361 189.233L176.067 186.756ZM195.512 175.523C195.419 175.478 195.317 175.454 195.213 175.454C195.109 175.454 195.007 175.478 194.914 175.523L191.203 177.67C191.042 177.762 191.05 177.916 191.203 178.008L195.504 180.492C195.596 180.539 195.697 180.564 195.8 180.564C195.902 180.564 196.004 180.539 196.095 180.492L199.814 178.345C199.975 178.253 199.967 178.1 199.814 178L195.512 175.523ZM207.42 166.882L211.131 164.735C211.292 164.643 211.284 164.49 211.131 164.39L206.829 161.914C206.738 161.867 206.637 161.842 206.534 161.842C206.431 161.842 206.33 161.867 206.239 161.914L202.52 164.061C202.359 164.153 202.367 164.306 202.52 164.406L206.814 166.882C206.905 166.927 207.004 166.95 207.105 166.95C207.206 166.95 207.306 166.927 207.397 166.882H207.42ZM183.121 166.721L186.84 164.574C187.001 164.49 186.986 164.337 186.84 164.237L182.546 161.753C182.453 161.707 182.351 161.684 182.247 161.684C182.144 161.684 182.041 161.707 181.948 161.753L178.23 163.9C178.076 163.992 178.084 164.145 178.23 164.245L182.531 166.729C182.62 166.771 182.717 166.792 182.816 166.791C182.914 166.789 183.011 166.766 183.098 166.721H183.121ZM170.853 188.014L181.718 181.742C181.872 181.65 181.864 181.496 181.718 181.397L177.34 178.912C177.248 178.867 177.147 178.844 177.045 178.844C176.943 178.844 176.842 178.867 176.75 178.912L165.877 185.177C165.716 185.269 165.724 185.422 165.877 185.522L170.171 187.998C170.265 188.052 170.371 188.081 170.48 188.084C170.588 188.086 170.695 188.062 170.792 188.014H170.853ZM201.431 170.003C201.523 170.05 201.624 170.074 201.727 170.074C201.829 170.074 201.93 170.05 202.022 170.003L205.74 167.856C205.894 167.764 205.886 167.611 205.74 167.511L201.439 165.034C201.348 164.987 201.247 164.963 201.144 164.963C201.041 164.963 200.94 164.987 200.849 165.034L197.13 167.181C196.977 167.273 196.984 167.427 197.13 167.526L201.431 170.003ZM195.88 166.476L199.599 164.329C199.752 164.237 199.745 164.084 199.599 163.984L195.297 161.5C195.206 161.453 195.105 161.428 195.002 161.428C194.899 161.428 194.798 161.453 194.707 161.5L190.988 163.647C190.835 163.731 190.843 163.884 190.988 163.984L195.29 166.468C195.373 166.505 195.462 166.525 195.553 166.527C195.644 166.528 195.735 166.511 195.819 166.476H195.88ZM165.417 191.15L169.136 189.003C169.289 188.911 169.282 188.757 169.136 188.665L164.835 186.181C164.743 186.134 164.642 186.11 164.539 186.11C164.437 186.11 164.335 186.134 164.244 186.181L160.525 188.328C160.372 188.42 160.38 188.573 160.525 188.673L164.827 191.157C164.911 191.192 165.001 191.21 165.092 191.208C165.183 191.207 165.273 191.187 165.356 191.15H165.417ZM189.416 176.942C189.508 176.989 189.609 177.014 189.712 177.014C189.814 177.014 189.916 176.989 190.007 176.942L193.726 174.795C193.887 174.703 193.879 174.55 193.726 174.458L189.424 171.973C189.332 171.928 189.231 171.905 189.129 171.905C189.027 171.905 188.925 171.928 188.834 171.973L185.115 174.12C184.954 174.212 184.962 174.366 185.115 174.465L189.416 176.942ZM138.251 206.845L141.97 204.698C142.123 204.606 142.116 204.453 141.97 204.353L137.669 201.877C137.577 201.829 137.476 201.805 137.373 201.805C137.271 201.805 137.17 201.829 137.078 201.877L133.36 204.023C133.199 204.115 133.214 204.269 133.36 204.368L137.653 206.845C137.738 206.881 137.83 206.9 137.923 206.898C138.015 206.897 138.106 206.876 138.19 206.837L138.251 206.845ZM143.68 203.709L147.399 201.562C147.56 201.47 147.552 201.317 147.399 201.217L143.105 198.733C143.013 198.688 142.912 198.664 142.81 198.664C142.707 198.664 142.606 198.688 142.515 198.733L138.796 200.88C138.635 200.972 138.642 201.125 138.796 201.217L143.097 203.701C143.177 203.736 143.263 203.753 143.35 203.753C143.437 203.753 143.523 203.736 143.603 203.701L143.68 203.709ZM132.815 209.981L136.534 207.834C136.695 207.742 136.68 207.589 136.534 207.489L132.24 205.013C132.147 204.965 132.045 204.941 131.941 204.941C131.837 204.941 131.735 204.965 131.642 205.013L127.923 207.159C127.77 207.251 127.778 207.405 127.923 207.504L132.225 209.981C132.308 210.017 132.399 210.035 132.49 210.034C132.581 210.033 132.671 210.012 132.754 209.973L132.815 209.981ZM154.491 197.445L158.202 195.305C158.363 195.213 158.355 195.06 158.202 194.96L153.901 192.476C153.809 192.429 153.708 192.405 153.605 192.405C153.503 192.405 153.402 192.429 153.31 192.476L149.592 194.623C149.431 194.707 149.446 194.861 149.592 194.96L153.885 197.445C153.979 197.493 154.083 197.518 154.188 197.518C154.294 197.518 154.397 197.493 154.491 197.445ZM149.055 200.588L152.774 198.441C152.927 198.349 152.919 198.196 152.774 198.096L148.472 195.612C148.38 195.567 148.279 195.543 148.177 195.543C148.075 195.543 147.974 195.567 147.882 195.612L144.163 197.759C144.01 197.851 144.017 198.004 144.163 198.096L148.464 200.581C148.557 200.624 148.659 200.645 148.761 200.642C148.864 200.639 148.964 200.613 149.055 200.565V200.588ZM159.92 194.309L163.638 192.162C163.799 192.07 163.784 191.916 163.638 191.824L159.345 189.34C159.251 189.295 159.149 189.271 159.046 189.271C158.942 189.271 158.84 189.295 158.747 189.34L155.035 191.487C154.874 191.579 154.882 191.732 155.035 191.832L159.337 194.316C159.43 194.356 159.531 194.373 159.632 194.368C159.733 194.363 159.831 194.335 159.92 194.286V194.309ZM184.778 147.905C184.87 147.952 184.973 147.977 185.077 147.977C185.181 147.977 185.283 147.952 185.376 147.905L189.094 145.758C189.248 145.674 189.24 145.521 189.094 145.421L187.952 144.762C187.859 144.714 187.757 144.69 187.653 144.69C187.549 144.69 187.447 144.714 187.354 144.762L183.635 146.908C183.482 147 183.489 147.154 183.635 147.253L184.778 147.905ZM158.049 165.157C158.14 165.204 158.241 165.229 158.344 165.229C158.447 165.229 158.548 165.204 158.639 165.157L162.358 163.01C162.511 162.918 162.504 162.765 162.358 162.665L158.056 160.188C157.965 160.141 157.864 160.117 157.761 160.117C157.659 160.117 157.557 160.141 157.466 160.188L153.747 162.335C153.594 162.427 153.602 162.581 153.747 162.68L158.049 165.157ZM168.906 158.862C168.997 158.909 169.098 158.934 169.201 158.934C169.304 158.934 169.405 158.909 169.496 158.862L173.215 156.715C173.376 156.623 173.361 156.47 173.215 156.37L168.921 153.886C168.828 153.84 168.726 153.817 168.622 153.817C168.519 153.817 168.416 153.84 168.323 153.886L164.604 156.033C164.451 156.125 164.459 156.278 164.604 156.37L168.906 158.862ZM151.401 168.968C151.494 169.013 151.597 169.037 151.7 169.037C151.804 169.037 151.906 169.013 151.999 168.968L155.718 166.821C155.871 166.729 155.864 166.575 155.718 166.476L151.416 163.992C151.325 163.946 151.224 163.923 151.121 163.923C151.019 163.923 150.918 163.946 150.826 163.992L147.107 166.138C146.946 166.223 146.962 166.376 147.107 166.476L151.401 168.968ZM163.47 161.998C163.562 162.045 163.665 162.07 163.769 162.07C163.873 162.07 163.975 162.045 164.068 161.998L167.779 159.851C167.94 159.759 167.932 159.606 167.779 159.506L163.477 157.029C163.386 156.982 163.285 156.958 163.182 156.958C163.079 156.958 162.978 156.982 162.887 157.029L159.168 159.176C159.007 159.268 159.015 159.422 159.168 159.521L163.47 161.998ZM140.536 175.209C140.628 175.256 140.729 175.281 140.831 175.281C140.934 175.281 141.035 175.256 141.127 175.209L144.845 173.062C145.006 172.97 144.999 172.817 144.845 172.717L140.536 170.287C140.445 170.239 140.344 170.215 140.241 170.215C140.138 170.215 140.037 170.239 139.946 170.287L136.227 172.433C136.066 172.525 136.074 172.679 136.227 172.778L140.536 175.209ZM145.98 172.142C146.071 172.189 146.173 172.214 146.275 172.214C146.378 172.214 146.479 172.189 146.571 172.142L150.289 169.995C150.45 169.903 150.435 169.75 150.289 169.65L145.988 167.166C145.896 167.121 145.795 167.097 145.693 167.097C145.59 167.097 145.489 167.121 145.397 167.166L141.679 169.313C141.525 169.405 141.533 169.558 141.679 169.65L145.98 172.142ZM173.913 154.192C174.004 154.24 174.105 154.264 174.208 154.264C174.311 154.264 174.412 154.24 174.503 154.192L178.222 152.046C178.383 151.954 178.375 151.8 178.222 151.701L177.079 151.041C176.988 150.994 176.887 150.97 176.784 150.97C176.682 150.97 176.58 150.994 176.489 151.041L172.77 153.188C172.609 153.28 172.625 153.433 172.77 153.533L173.913 154.192ZM190.214 144.785C190.306 144.83 190.407 144.853 190.509 144.853C190.611 144.853 190.712 144.83 190.804 144.785L194.523 142.638C194.684 142.546 194.676 142.392 194.523 142.3L193.381 141.641C193.289 141.594 193.188 141.569 193.085 141.569C192.983 141.569 192.881 141.594 192.79 141.641L189.071 143.788C188.91 143.88 188.926 144.033 189.071 144.133L190.214 144.785ZM199.246 149.998C199.338 150.044 199.439 150.067 199.541 150.067C199.644 150.067 199.745 150.044 199.837 149.998L203.555 147.852C203.716 147.759 203.701 147.606 203.555 147.514L199.254 145.03C199.163 144.983 199.061 144.958 198.959 144.958C198.856 144.958 198.755 144.983 198.663 145.03L194.945 147.177C194.791 147.269 194.799 147.422 194.945 147.522L199.246 149.998ZM212.825 163.8L216.544 161.653C216.705 161.561 216.69 161.408 216.544 161.308L212.25 158.824C212.157 158.778 212.055 158.755 211.951 158.755C211.848 158.755 211.745 158.778 211.652 158.824L207.933 160.971C207.78 161.063 207.788 161.216 207.933 161.308L212.235 163.792C212.33 163.832 212.433 163.849 212.536 163.841C212.638 163.833 212.738 163.801 212.825 163.746V163.8ZM179.349 151.072C179.441 151.117 179.542 151.141 179.644 151.141C179.747 151.141 179.848 151.117 179.939 151.072L183.658 148.925C183.812 148.833 183.804 148.68 183.658 148.58L182.516 147.921C182.424 147.873 182.323 147.849 182.22 147.849C182.118 147.849 182.017 147.873 181.925 147.921L178.207 150.067C178.046 150.159 178.053 150.313 178.207 150.412L179.349 151.072ZM135.108 178.429C135.2 178.477 135.303 178.501 135.407 178.501C135.511 178.501 135.613 178.477 135.706 178.429L139.425 176.282C139.578 176.19 139.57 176.037 139.425 175.937L135.123 173.461C135.032 173.414 134.931 173.389 134.828 173.389C134.725 173.389 134.624 173.414 134.533 173.461L130.814 175.608C130.653 175.7 130.668 175.853 130.814 175.953L135.108 178.429Z" fill="#455A64"/>
<path d="M159.207 210.993L195.896 189.777C196.516 189.463 197.202 189.3 197.897 189.3C198.592 189.3 199.278 189.463 199.898 189.777L220.938 201.923C222.042 202.567 222.042 203.602 220.938 204.223L184.241 225.446C183.622 225.764 182.936 225.93 182.24 225.93C181.544 225.93 180.858 225.764 180.239 225.446L159.199 213.301C158.103 212.665 158.103 211.63 159.207 210.993Z" fill="#263238"/>
<path d="M167.227 24.3287V29.9336L83.7202 78.1467C83.1451 78.4764 82.6774 78.208 82.6774 77.5409L82.7388 75.5321C82.2409 75.3335 81.7281 75.1745 81.2053 75.0567L56.194 89.4945C55.8894 89.6946 55.6358 89.9632 55.4534 90.2787C55.271 90.5942 55.1649 90.9479 55.1435 91.3117V93.428C55.126 93.7918 55.0223 94.1462 54.841 94.4622C54.6597 94.7781 54.406 95.0465 54.1007 95.2451L51.2178 96.909V91.3117C51.2353 90.9479 51.339 90.5934 51.5203 90.2775C51.7015 89.9616 51.9553 89.6932 52.2606 89.4945L166.184 23.723C166.759 23.3933 167.227 23.6616 167.227 24.3287Z" fill="#39D4E8"/>
<path d="M167.234 108.257C167.215 108.62 167.109 108.973 166.927 109.288C166.744 109.602 166.49 109.869 166.184 110.066L52.2606 175.838C51.6855 176.175 51.2178 175.899 51.2178 175.232V96.909L54.1007 95.2451C54.6758 94.9154 55.6342 89.8319 56.194 89.4945L81.2053 75.0567C81.7803 74.727 83.1451 78.4764 83.7202 78.1237L167.227 29.9336V108.257H167.234Z" fill="#EBEBEB"/>
<path d="M56.1937 118.378L106.232 89.4639C106.807 89.1265 107.274 89.4025 107.274 90.0696V139.249C107.257 139.613 107.153 139.967 106.972 140.283C106.791 140.599 106.537 140.867 106.232 141.066L56.1937 169.98C55.6186 170.31 55.1509 170.041 55.1509 169.374V120.195C55.1684 119.831 55.2721 119.477 55.4534 119.161C55.6347 118.845 55.8884 118.577 56.1937 118.378Z" fill="#FAFAFA"/>
<path d="M56.1937 105.389L162.258 44.1567C162.833 43.8194 163.301 44.0954 163.301 44.7625V52.1309C163.282 52.4934 163.178 52.8463 162.996 53.1608C162.815 53.4753 162.562 53.7425 162.258 53.9404L56.1937 115.181C55.6186 115.51 55.1509 115.242 55.1509 114.575V107.206C55.1684 106.843 55.2721 106.488 55.4534 106.172C55.6347 105.856 55.8884 105.588 56.1937 105.389Z" fill="#455A64"/>
<path d="M123.975 72.0971V74.0447C123.975 74.451 124.258 74.612 124.603 74.4127L155.434 56.6088V53.2045L124.603 71.0083C124.421 71.128 124.269 71.2888 124.159 71.4779C124.05 71.667 123.987 71.8791 123.975 72.0971Z" fill="#FAFAFA"/>
<path d="M158.739 51.2951C159.091 51.0958 159.367 51.2951 159.367 51.6555V53.6107C159.356 53.829 159.294 54.0416 159.184 54.2309C159.075 54.4202 158.922 54.5808 158.739 54.6995L155.434 56.6087V53.2043L158.739 51.2951Z" fill="#39D4E8"/>
<path d="M158.501 53.9711L158.125 53.8561C158.165 53.7007 158.185 53.541 158.186 53.3807C158.2 53.2347 158.177 53.0876 158.118 52.9534C158.059 52.8191 157.966 52.7023 157.849 52.6139C157.768 52.5653 157.675 52.5396 157.581 52.5396C157.486 52.5396 157.393 52.5653 157.312 52.6139C157.072 52.7903 156.877 53.0214 156.744 53.2881C156.611 53.5547 156.543 53.8493 156.546 54.1474C156.533 54.2932 156.558 54.4399 156.617 54.5738C156.675 54.7078 156.767 54.8248 156.883 54.9142C156.956 54.9541 157.038 54.9752 157.121 54.9755C157.227 54.9723 157.33 54.9405 157.42 54.8835C157.695 54.6975 157.905 54.4291 158.018 54.1167L158.386 54.2318H158.424C158.453 54.233 158.481 54.2247 158.505 54.208C158.529 54.1914 158.546 54.1674 158.555 54.1397C158.567 54.1098 158.568 54.0765 158.558 54.0457C158.548 54.0148 158.528 53.9884 158.501 53.9711ZM157.312 54.6765C157.273 54.7001 157.228 54.7126 157.182 54.7126C157.136 54.7126 157.091 54.7001 157.052 54.6765C156.977 54.6068 156.92 54.5204 156.885 54.4245C156.851 54.3285 156.839 54.2256 156.852 54.1244C156.849 53.8775 156.901 53.633 157.005 53.4088C157.108 53.1846 157.26 52.9863 157.45 52.8286C157.502 52.7981 157.56 52.7797 157.619 52.7749C157.649 52.7638 157.681 52.7638 157.711 52.7749C157.841 52.8439 157.91 53.051 157.91 53.3193C157.927 53.5769 157.881 53.8347 157.777 54.0709C157.673 54.307 157.514 54.5148 157.312 54.6765Z" fill="#FAFAFA"/>
<path d="M167.227 29.9336V36.75L51.2178 103.725V96.909L53.3723 95.6668C53.9474 95.3295 54.1391 94.8234 54.4151 93.8496L55.1435 91.3117C55.1858 90.9533 55.3008 90.6073 55.4814 90.2948C55.662 89.9824 55.9045 89.71 56.194 89.4945L81.2053 75.0567C81.3166 74.9575 81.4504 74.8868 81.5951 74.8508C81.7399 74.8148 81.8912 74.8146 82.036 74.85C82.1809 74.8855 82.315 74.9556 82.4267 75.0544C82.5384 75.1532 82.6245 75.2776 82.6774 75.417L83.5745 77.0425C83.9042 77.6099 84.0652 77.9473 84.6403 77.6099L167.227 29.9336Z" fill="#E6E6E6"/>
<path d="M162.319 27.8481C163.086 27.4264 163.638 27.7638 163.638 28.6149C163.616 29.0753 163.485 29.5238 163.255 29.9237C163.026 30.3236 162.705 30.6633 162.319 30.9151C161.552 31.3368 160.993 30.9918 160.993 30.1484C161.014 29.6868 161.145 29.2371 161.376 28.8369C161.607 28.4367 161.93 28.0976 162.319 27.8481Z" fill="#455A64"/>
<path d="M157.565 30.5853C158.294 30.1636 158.884 30.5009 158.884 31.352C158.862 31.8124 158.731 32.261 158.502 32.6609C158.272 33.0607 157.951 33.4005 157.565 33.6523C156.799 34.074 156.247 33.729 156.247 32.8855C156.268 32.425 156.399 31.9762 156.628 31.5762C156.858 31.1763 157.179 30.8366 157.565 30.5853Z" fill="#455A64"/>
<path d="M152.804 33.3609C153.533 32.9392 154.123 33.2766 154.123 34.1277C154.101 34.5881 153.97 35.0366 153.74 35.4365C153.511 35.8364 153.19 36.1762 152.804 36.4279C152.037 36.8496 151.485 36.5046 151.485 35.6612C151.507 35.2006 151.638 34.7518 151.867 34.3519C152.096 33.9519 152.418 33.6122 152.804 33.3609Z" fill="#455A64"/>
<path opacity="0.5" d="M62.7958 91.8715C62.7958 91.7718 62.6961 91.7872 62.6578 91.8715L62.4278 92.4236C62.0444 92.3775 61.5767 92.7533 61.2623 93.4203C60.8559 94.2868 60.8559 95.3065 61.2623 95.7206C61.3644 95.817 61.4971 95.8745 61.6373 95.8829C61.7775 95.8913 61.9162 95.8502 62.029 95.7666C62.3678 95.55 62.6346 95.2378 62.7958 94.8695C62.8495 94.7545 62.8495 94.6241 62.7958 94.5781C62.7421 94.5321 62.6578 94.5781 62.6118 94.6855C62.3051 95.3295 61.845 95.6132 61.5077 95.3219C61.3535 95.0661 61.272 94.7732 61.272 94.4746C61.272 94.176 61.3535 93.8831 61.5077 93.6274C61.7223 93.1673 62.0367 92.8606 62.2744 92.8606L62.1057 93.2746C62.0597 93.382 62.1057 93.4893 62.1671 93.4433L62.8418 93.0063C62.8676 92.9833 62.8878 92.9549 62.9011 92.923C62.9144 92.8912 62.9203 92.8567 62.9185 92.8223L62.7958 91.8715Z" fill="#455A64"/>
<path opacity="0.5" d="M80.4767 78.1696L81.0825 76.8968C81.1168 76.8374 81.1348 76.77 81.1348 76.7013C81.1348 76.6327 81.1168 76.5653 81.0825 76.5058C81.0058 76.4368 80.8908 76.5058 80.8218 76.6515L80.2237 77.9243L79.6256 77.3416C79.549 77.2802 79.4416 77.3416 79.3649 77.4949C79.3306 77.5544 79.3126 77.6218 79.3126 77.6904C79.3126 77.7591 79.3306 77.8265 79.3649 77.886L79.963 78.4687L79.3649 79.7338C79.3299 79.7944 79.3115 79.8632 79.3115 79.9332C79.3115 80.0032 79.3299 80.0719 79.3649 80.1325C79.3841 80.1457 79.4068 80.1528 79.4301 80.1528C79.4534 80.1528 79.4761 80.1457 79.4953 80.1325C79.5517 80.0908 79.5965 80.0353 79.6256 79.9715L80.2237 78.7064L80.8218 79.2814C80.8303 79.29 80.8405 79.2968 80.8517 79.3015C80.8628 79.3061 80.8748 79.3085 80.8869 79.3085C80.899 79.3085 80.911 79.3061 80.9222 79.3015C80.9334 79.2968 80.9436 79.29 80.9521 79.2814C81.0101 79.2448 81.0556 79.1913 81.0825 79.1281C81.1175 79.0675 81.1359 78.9987 81.1359 78.9287C81.1359 78.8587 81.1175 78.79 81.0825 78.7294L80.4767 78.1696Z" fill="#455A64"/>
<path d="M64.981 93.4356V91.3117C64.9985 90.9479 65.1022 90.5935 65.2834 90.2775C65.4647 89.9616 65.7185 89.6933 66.0237 89.4946L160.288 35.1015C160.863 34.7718 161.33 35.0402 161.33 35.7072V37.8311C161.313 38.195 161.209 38.5494 161.028 38.8653C160.847 39.1813 160.593 39.4496 160.288 39.6483L66.0237 94.0414C65.4487 94.3711 64.981 94.1027 64.981 93.4356Z" fill="#FAFAFA"/>
<path d="M159.705 36.2285L159.981 36.8113C159.993 36.8206 160.008 36.8257 160.023 36.8257C160.038 36.8257 160.053 36.8206 160.065 36.8113L160.686 36.5736C160.778 36.5736 160.824 36.6733 160.748 36.8036L160.303 37.6394C160.289 37.6921 160.289 37.7476 160.303 37.8004L160.41 38.5671C160.41 38.6821 160.318 38.8432 160.234 38.8355L159.682 38.7665C159.66 38.7654 159.638 38.7706 159.619 38.7815C159.6 38.7924 159.585 38.8084 159.575 38.8278L159.023 39.5332C158.931 39.6406 158.831 39.6022 158.846 39.4642L158.954 38.5901C158.964 38.5713 158.969 38.5502 158.969 38.5288C158.969 38.5074 158.964 38.4863 158.954 38.4675L158.501 38.1454C158.432 38.0917 158.501 37.9077 158.57 37.8311L159.184 37.3633C159.229 37.3255 159.261 37.2746 159.276 37.2177L159.552 36.3206C159.506 36.2055 159.628 36.1365 159.705 36.2285Z" stroke="#E0E0E0" stroke-width="0.75" stroke-miterlimit="10"/>
<g opacity="0.5">
<path opacity="0.5" d="M162.565 34.8483C162.501 34.8469 162.439 34.8292 162.384 34.797C162.329 34.7648 162.283 34.7191 162.25 34.6643C162.203 34.5798 162.191 34.4801 162.217 34.3868C162.243 34.2935 162.304 34.2142 162.388 34.1659L165.333 32.4638C165.415 32.4304 165.506 32.4277 165.59 32.4562C165.673 32.4847 165.744 32.5424 165.789 32.6188C165.834 32.6951 165.849 32.7851 165.833 32.8721C165.817 32.9591 165.77 33.0373 165.701 33.0925L162.772 34.7947C162.711 34.8356 162.638 34.8546 162.565 34.8483Z" fill="#455A64"/>
<path opacity="0.5" d="M162.565 36.5505C162.501 36.549 162.439 36.5313 162.384 36.4991C162.329 36.4669 162.283 36.4213 162.25 36.3665C162.227 36.3252 162.212 36.2798 162.207 36.2327C162.201 36.1857 162.205 36.1381 162.218 36.0925C162.23 36.047 162.252 36.0044 162.281 35.9672C162.311 35.93 162.347 35.8989 162.388 35.8758L165.333 34.1659C165.415 34.1326 165.506 34.1299 165.59 34.1583C165.673 34.1868 165.744 34.2445 165.789 34.3209C165.834 34.3973 165.849 34.4872 165.833 34.5742C165.817 34.6612 165.77 34.7395 165.701 34.7946L162.772 36.5045C162.708 36.539 162.637 36.5549 162.565 36.5505Z" fill="#455A64"/>
<path opacity="0.5" d="M162.565 38.2527C162.485 38.2528 162.407 38.2264 162.344 38.1777C162.281 38.1289 162.236 38.0607 162.216 37.9835C162.196 37.9064 162.202 37.8247 162.233 37.7513C162.264 37.6779 162.319 37.617 162.388 37.578L165.333 35.8758C165.373 35.8501 165.419 35.8329 165.467 35.8256C165.515 35.8182 165.563 35.8207 165.61 35.8329C165.657 35.8451 165.701 35.8668 165.739 35.8966C165.777 35.9264 165.808 35.9637 165.831 36.0062C165.879 36.0898 165.892 36.1888 165.868 36.282C165.843 36.3752 165.783 36.4551 165.701 36.5046L162.772 38.2067C162.708 38.2412 162.637 38.2572 162.565 38.2527Z" fill="#455A64"/>
</g>
<path d="M79.1125 129.971C83.3219 125.685 84.403 123.737 84.403 122.02C84.403 120.302 83.6823 119.221 81.4434 120.486C79.8623 121.37 78.6777 122.823 78.1311 124.55C77.9911 124.913 77.7707 125.239 77.4865 125.505C77.2024 125.771 76.8617 125.968 76.4902 126.084L73.5689 126.728C72.8712 126.889 72.4035 126.444 72.5721 125.746C73.8526 120.525 77.0806 115.702 81.6121 113.087C87.056 109.944 90.2303 112.32 90.2303 117.626C90.2303 122.725 87.5467 126.981 84.8631 130.04C84.3632 130.681 84.0715 131.46 84.0273 132.271V134.004C84.0057 134.393 83.8931 134.77 83.6986 135.107C83.5042 135.444 83.2333 135.731 82.9079 135.944L79.3195 138.014C78.6985 138.375 78.2001 138.083 78.2001 137.37V132.141C78.2545 131.336 78.5756 130.573 79.1125 129.971Z" fill="#F53E56"/>
<path d="M78.131 145.206C78.1233 144.142 78.3928 143.093 78.913 142.164C79.4333 141.235 80.1864 140.458 81.0983 139.908C83.0229 138.789 84.0273 139.778 84.0273 141.802C84.0431 142.867 83.7813 143.918 83.2677 144.851C82.7541 145.784 82.0065 146.567 81.0983 147.123C79.1278 148.258 78.131 147.231 78.131 145.206Z" fill="#F53E56"/>
<path d="M197.024 6.43264L194.21 4.7918C193.937 4.66061 193.634 4.60628 193.332 4.63465C193.031 4.66302 192.743 4.77302 192.5 4.95282L122.442 45.3911C121.742 45.8473 121.159 46.4619 120.741 47.1853C120.323 47.9086 120.081 48.7202 120.035 49.5545V150.313C120.008 150.605 120.056 150.9 120.176 151.169C120.295 151.437 120.482 151.67 120.717 151.846L123.554 153.487L192.469 111.239C193.168 110.783 193.75 110.168 194.167 109.444C194.584 108.721 194.824 107.91 194.869 107.076L197.024 6.43264Z" fill="#39D4E8"/>
<path opacity="0.15" d="M123.508 153.487L120.709 151.869C120.473 151.695 120.286 151.461 120.168 151.192C120.049 150.923 120.003 150.628 120.034 150.336V49.5546C120.066 48.6709 120.33 47.8113 120.801 47.0626L123.669 48.6958C123.195 49.4461 122.931 50.3089 122.902 51.1954V151.961C122.868 152.246 122.906 152.535 123.012 152.801C123.117 153.067 123.288 153.303 123.508 153.487Z" fill="black"/>
<path d="M125.256 47.0397L195.314 6.59378C196.64 5.82703 197.714 6.4481 197.714 7.9816V108.74C197.669 109.574 197.428 110.385 197.011 111.108C196.594 111.832 196.013 112.447 195.314 112.903L125.256 153.349C123.93 154.116 122.849 153.495 122.849 151.961V51.1955C122.896 50.3625 123.139 49.5524 123.557 48.8305C123.975 48.1086 124.557 47.4952 125.256 47.0397Z" fill="#39D4E8"/>
<path opacity="0.4" d="M194.21 4.79184L196.955 6.37901C196.689 6.28311 196.404 6.25256 196.123 6.28992C195.843 6.32728 195.576 6.43147 195.344 6.59369L125.287 47.0396C124.62 47.4511 124.065 48.0198 123.669 48.6958L120.824 47.0626C121.22 46.3822 121.775 45.8084 122.442 45.3911L192.461 4.9912C192.705 4.81184 192.993 4.70272 193.295 4.67569C193.596 4.64865 193.899 4.70474 194.171 4.83785L194.21 4.79184Z" fill="white"/>
<path d="M133.207 50.9961L189.31 18.601C190.315 18.0183 191.127 18.4936 191.127 19.6514V105.841C191.093 106.473 190.911 107.087 190.595 107.634C190.279 108.182 189.839 108.647 189.31 108.993L133.207 141.327C132.203 141.902 131.382 141.434 131.382 140.276V54.1627C131.413 53.5278 131.594 52.9092 131.911 52.3584C132.229 51.8077 132.673 51.3406 133.207 50.9961Z" fill="white"/>
<path d="M177.663 69.973L178.231 69.5053C177.294 68.4897 176.077 67.7746 174.734 67.4504L174.55 68.1558C175.741 68.4501 176.822 69.081 177.663 69.973Z" fill="#37474F"/>
<path d="M178.913 72.833L177.755 71.6982C177.481 71.4126 177.328 71.0321 177.328 70.6362C177.328 70.2404 177.481 69.8599 177.755 69.5743C178.041 69.3002 178.421 69.1471 178.817 69.1471C179.213 69.1471 179.594 69.3002 179.879 69.5743L181.029 70.7091C181.303 70.9947 181.457 71.3752 181.457 71.771C181.457 72.1669 181.303 72.5474 181.029 72.833C180.744 73.1048 180.365 73.2565 179.971 73.2565C179.577 73.2565 179.198 73.1048 178.913 72.833Z" fill="#39D4E8"/>
<path d="M189.118 99.0405L191.71 103.472C191.71 103.472 208.686 94.4707 209.644 93.2899C210.602 92.1091 210.541 89.7245 210.687 88.4364C210.924 86.2895 210.135 84.4416 210.02 83.6672C209.828 82.3178 211.768 82.2411 212.726 84.1196C213.432 85.4844 213.493 87.0486 214.091 87.0639C214.948 86.4624 215.746 85.7822 216.476 85.032C217.526 83.8819 219.428 81.965 220.869 82.2257C221.114 82.2827 221.336 82.4117 221.507 82.5962C221.678 82.7808 221.79 83.0123 221.828 83.2609C221.869 84.0533 222.051 84.8322 222.364 85.5611C222.598 85.8377 222.79 86.1479 222.932 86.4812C222.978 86.976 222.978 87.4739 222.932 87.9687C222.993 88.6818 223.698 88.9808 223.775 89.6785C223.753 90.2161 223.694 90.7515 223.599 91.281C223.599 91.6261 223.706 91.9251 223.706 92.2701C223.632 92.9785 223.325 93.6422 222.832 94.1563C221.396 95.8294 219.694 97.2543 217.794 98.3734C216.261 99.3855 214.206 100.283 212.427 101.233C210.648 102.184 190.667 117.534 188.006 115.725C186.918 114.958 184.05 111.301 181.037 107.206" fill="#FBF1BE"/>
<path d="M180.408 107.735C177.345 103.471 174.529 99.0346 171.974 94.4476C168.907 85.8601 172.38 80.1401 172.38 80.1401C172.38 80.1401 176.789 78.7753 180.462 84.5719C182.079 87.1252 186.312 94.302 189.087 99.0405" fill="#FBF1BE"/>
<path d="M164.667 80.2704C164.667 80.2704 169.528 78.2999 172.679 78.5069C175.83 78.714 178.161 79.6034 180.477 83.3221C183.544 88.283 188.673 96.8552 188.673 96.8552C186.506 101.312 183.045 105.013 178.744 107.475L169.328 93.2745L164.667 80.2704Z" fill="#455A64"/>
<path d="M149.24 88.8581C147.618 90.1639 146.422 91.9229 145.804 93.9109C145.085 96.3132 144.734 98.8103 144.762 101.318V117.458L144.555 148.005C154.798 151.494 167.818 148.419 178.744 136.274C178.744 136.274 178.138 97.1696 178.138 90.7826C178.138 90.4913 178.138 90.1999 178.138 89.9009C177.739 80.8456 169.926 76.6438 162.228 80.9989L155.757 84.6486L149.263 88.8581H149.24Z" fill="#F0F0F0"/>
<path d="M152.805 51.7014C152.805 51.7014 147.782 51.3104 146.671 55.9722C145.651 60.128 153.226 76.5364 153.058 76.2603C152.889 75.9843 152.805 51.7014 152.805 51.7014Z" fill="#263238"/>
<path d="M170.54 42.3164C170.54 42.3164 168.677 37.3019 159.629 40.8673C155.028 42.6845 153.303 48.3814 153.303 48.3814L170.54 42.3164Z" fill="#39D4E8"/>
<path opacity="0.4" d="M170.54 42.3164C170.54 42.3164 168.677 37.3019 159.629 40.8673C155.028 42.6845 153.303 48.3814 153.303 48.3814L170.54 42.3164Z" fill="black"/>
<path d="M156.255 55.6348C156.255 62.5355 161.085 66.814 167.051 65.2115C173.016 63.609 177.846 56.7773 177.846 49.8765C177.846 42.9758 172.702 42.9758 166.736 44.586C160.771 46.1961 156.255 48.7494 156.255 55.6348Z" fill="#263238"/>
<path d="M150.62 66.538C150.62 66.538 152.207 74.7422 152.843 75.992C153.035 76.354 153.314 76.6623 153.656 76.8886C153.997 77.115 154.39 77.2522 154.798 77.2878L154.691 71.2458L150.62 66.538Z" fill="#263238"/>
<path d="M152.613 53.6412C151.985 53.7432 151.385 53.9795 150.856 54.3341C150.326 54.6887 149.88 55.1533 149.546 55.6961C148.243 57.59 148.971 62.2365 150.605 66.5379L153.595 66.1316L152.613 53.6412Z" fill="#263238"/>
<path d="M154.515 65.8939C153.909 66.469 153.058 65.3649 152.314 64.6672C151.571 63.9694 149.155 63.3944 147.944 66.653C146.732 69.9117 149.01 73.3161 150.919 73.5001C154.2 73.8068 154.691 71.2458 154.691 71.2458L154.799 85.2543C160.311 91.0969 169.957 84.2115 165.617 81.6276V77.4642C167.123 77.3344 168.609 77.0255 170.041 76.5441C172.457 75.463 173.975 72.8637 174.711 69.6433C175.884 64.4831 176.329 60.4424 175.332 51.1877C174.243 41.036 163.716 43.7503 158.034 49.4012C152.353 55.0521 154.515 65.8939 154.515 65.8939Z" fill="#FBF1BE"/>
<path d="M154.515 67.0977C154.208 67.1897 153.058 65.2958 152.314 64.7054C151.279 63.8927 152.613 53.6796 152.613 53.6796C151.417 51.042 153.626 47.0626 155.933 45.4448C157.592 44.3802 159.463 43.6918 161.416 43.4282C163.072 43.1317 164.723 42.9043 166.369 42.7458C168.381 42.6405 170.385 42.3997 172.365 42.0251C173.915 41.6573 175.418 41.1119 176.843 40.3996C178.1 39.8245 179.143 41.1203 178.031 43.2749C177.036 45.2344 175.653 46.9716 173.967 48.3814C169.076 52.0541 163.394 52.9359 158.448 53.4803C157.337 53.6029 157.091 54.9141 156.493 58.4795C155.964 61.5771 155.527 66.768 154.515 67.0977Z" fill="#263238"/>
<path d="M148.848 53.7256L145.214 52.4452C145.728 51.1034 146.962 50.3059 147.959 50.6586C148.956 51.0113 149.362 52.3838 148.848 53.7256Z" fill="#263238"/>
<path d="M165.61 77.4642C165.61 77.4642 160.242 77.6558 158.341 77.0041C157.204 76.6079 156.269 75.7821 155.734 74.7039C155.993 75.8373 156.499 76.9 157.214 77.8168C158.594 79.4807 165.61 79.0973 165.61 79.0973V77.4642Z" fill="#FBB6B6"/>
<path d="M164.306 61.7305C164.302 62.0643 164.197 62.389 164.006 62.6625C163.814 62.936 163.545 63.1455 163.233 63.264C162.642 63.4173 162.159 62.9649 162.159 62.2519C162.154 61.9102 162.255 61.5754 162.447 61.2928C162.639 61.0102 162.913 60.7936 163.233 60.6724C163.831 60.542 164.306 60.9637 164.306 61.7305Z" fill="#263238"/>
<path d="M162.581 57.0149L160.281 59.1082C160.119 58.7166 160.084 58.2845 160.181 57.872C160.277 57.4596 160.5 57.0876 160.818 56.8079C160.931 56.6738 161.076 56.5699 161.24 56.5055C161.403 56.4411 161.58 56.418 161.755 56.4385C161.929 56.459 162.096 56.5224 162.24 56.623C162.384 56.7235 162.502 56.8582 162.581 57.0149Z" fill="#263238"/>
<path d="M165.127 70.1111L167.588 70.5175C167.518 70.9087 167.311 71.2624 167.005 71.5163C166.7 71.7702 166.314 71.908 165.917 71.9053C165.234 71.7979 164.881 70.9928 165.127 70.1111Z" fill="#FBB6B6"/>
<path d="M174.22 54.9908L172.111 53.6796C172.548 52.9129 173.361 52.5065 173.944 52.8669C174.239 53.1273 174.43 53.4863 174.481 53.8769C174.532 54.2676 174.439 54.6634 174.22 54.9908Z" fill="#263238"/>
<path d="M173.3 58.9473C173.306 59.2911 173.205 59.6283 173.012 59.9126C172.818 60.1968 172.541 60.414 172.219 60.5344C171.621 60.6878 171.138 60.2354 171.138 59.5223C171.132 59.1795 171.234 58.8435 171.427 58.5606C171.621 58.2777 171.897 58.0618 172.219 57.9428C172.817 57.7818 173.3 58.2342 173.3 58.9473Z" fill="#263238"/>
<path d="M167.963 59.3766L168.086 66.9061L171.958 64.8818L167.963 59.3766Z" fill="#FBB6B6"/>
<path d="M133.015 134.572C136.036 103.518 140.92 92.4848 148.572 89.3948C151.141 91.4037 151.555 100.566 148.649 107.444C148.649 107.444 142.254 128.039 141.748 135.047C141.426 141.601 141.669 148.171 142.477 154.683C142.518 155.075 142.641 155.453 142.838 155.794C143.034 156.135 143.301 156.43 143.619 156.661C145.252 157.781 145.107 159.345 146.257 160.856C147.162 162.036 148.02 162.266 147.79 162.696C147.599 163.125 147.267 163.477 146.848 163.691C146.43 163.906 145.951 163.971 145.49 163.877C144.757 163.622 144.078 163.232 143.489 162.726C143.921 164.38 144.604 165.957 145.513 167.404C147.583 170.754 147.43 172.97 142.354 173.591C139.172 173.982 136.91 171.958 135.507 163.976C135.108 161.676 134.127 157.536 133.751 154.561C132.662 146.073 132.524 139.571 133.015 134.572Z" fill="#FBF1BE"/>
<path d="M150.765 87.9226C150.765 87.9226 145.198 89.7168 142.331 94.1716C139.463 98.6264 136.596 105.834 134.418 118.708C134.418 118.708 137.792 123.569 147 119.819C147 119.819 151.363 103.442 151.877 96.9319C152.406 89.8318 150.765 87.9226 150.765 87.9226Z" fill="#455A64"/>
<path d="M155.941 42.5618C150.734 45.8205 148.488 49.7769 148.358 54.5461C148.312 57.8222 148.442 61.0984 148.749 64.3605C147.768 65.0665 146.96 65.9849 146.383 67.047C145.807 68.109 145.478 69.2875 145.421 70.4944C145.421 73.7224 148.036 75.6393 151.264 74.7729C152.883 74.2935 154.315 73.3239 155.361 71.9975C156.408 70.6711 157.017 69.0531 157.106 67.3661C157.172 66.3189 156.845 65.2847 156.188 64.4663C155.531 63.6479 154.593 63.1043 153.556 62.942C152.904 58.3868 152.917 53.761 153.594 49.2095C154.752 42.3088 167.649 38.3294 170.54 42.3088C169.673 38.8738 163.179 37.9997 155.941 42.5618Z" fill="#39D4E8"/>
<path opacity="0.15" d="M155.941 42.5618C150.734 45.8205 148.488 49.7769 148.358 54.5461C148.312 57.8222 148.442 61.0984 148.749 64.3605C147.768 65.0665 146.96 65.9849 146.383 67.047C145.807 68.109 145.478 69.2875 145.421 70.4944C145.421 73.7224 148.036 75.6393 151.264 74.7729C152.883 74.2935 154.315 73.3239 155.361 71.9975C156.408 70.6711 157.017 69.0531 157.106 67.3661C157.172 66.3189 156.845 65.2847 156.188 64.4663C155.531 63.6479 154.593 63.1043 153.556 62.942C152.904 58.3868 152.917 53.761 153.594 49.2095C154.752 42.3088 167.649 38.3294 170.54 42.3088C169.673 38.8738 163.179 37.9997 155.941 42.5618Z" fill="black"/>
<path d="M154.062 68.1788C154.079 67.8356 154.01 67.4938 153.862 67.1838C153.714 66.8738 153.491 66.6054 153.214 66.4025C152.936 66.1997 152.613 66.0688 152.273 66.0215C151.932 65.9742 151.586 66.012 151.264 66.1316C150.488 66.3617 149.802 66.8266 149.301 67.4623C148.8 68.098 148.508 68.8733 148.465 69.6816C148.453 70.0232 148.526 70.3623 148.677 70.6691C148.828 70.9758 149.052 71.2406 149.329 71.44C149.607 71.6394 149.929 71.7673 150.268 71.8124C150.607 71.8574 150.951 71.8182 151.271 71.6982C152.042 71.4695 152.723 71.0089 153.223 70.3792C153.722 69.7495 154.015 68.9811 154.062 68.1788Z" fill="#39D4E8"/>
<path d="M109.913 117.442C109.787 117.565 109.672 117.699 109.568 117.841C109.384 118.068 109.246 118.328 109.162 118.608C109.107 118.769 109.107 118.945 109.162 119.106C109.182 119.221 109.239 119.325 109.323 119.405C109.364 119.452 109.41 119.493 109.461 119.528L106.647 117.902C106.534 117.84 106.441 117.747 106.379 117.634C106.334 117.527 106.311 117.413 106.311 117.297C106.311 117.181 106.334 117.066 106.379 116.959C106.44 116.769 106.528 116.588 106.639 116.423C106.785 116.204 106.949 115.999 107.13 115.809L109.913 117.442Z" fill="#39D4E8"/>
<path d="M109.937 117.412C108.472 118.945 108.986 119.98 111.087 119.712L122.849 118.355V103.994L109.937 117.412Z" fill="#39D4E8"/>
<path d="M109.936 117.412C109.009 118.378 108.878 119.144 109.43 119.52L106.616 117.895C106.026 117.527 106.156 116.745 107.092 115.763L120.011 102.368L122.856 104.017L109.936 117.412Z" fill="#39D4E8"/>
<path opacity="0.15" d="M109.913 117.442C109.787 117.565 109.672 117.699 109.568 117.841C109.39 118.072 109.253 118.331 109.162 118.608C109.117 118.771 109.117 118.943 109.162 119.106C109.184 119.22 109.241 119.324 109.323 119.405C109.364 119.452 109.41 119.493 109.461 119.528L106.647 117.902C106.534 117.84 106.441 117.747 106.379 117.634C106.334 117.527 106.311 117.413 106.311 117.297C106.311 117.181 106.334 117.066 106.379 116.959C106.443 116.77 106.531 116.59 106.639 116.423C106.785 116.204 106.949 115.999 107.13 115.809L109.913 117.442Z" fill="black"/>
<path opacity="0.4" d="M122.856 103.994L109.936 117.412L107.084 115.763L120.011 102.368L122.856 103.994Z" fill="white"/>
<path d="M189.118 99.0404L191.71 103.472C191.71 103.472 208.686 94.4706 209.644 93.2898C210.603 92.109 210.541 89.7244 210.687 88.4363C210.925 86.2894 210.135 84.4415 210.02 83.6671C209.79 82.0186 212.159 82.402 212.911 83.0537C213.404 83.5792 213.815 84.1763 214.13 84.8249C214.498 85.4383 215.188 87.4395 215.893 87.5622C216.445 87.6619 217.542 86.8798 217.994 86.5424C219.857 85.1316 221.007 83.1764 222.441 81.3899C222.697 81.0055 223.052 80.698 223.469 80.5005C223.835 80.4276 224.213 80.4388 224.574 80.5331C224.935 80.6273 225.27 80.8023 225.554 81.0449C226.159 81.3827 226.682 81.8485 227.088 82.4097C227.335 82.8301 227.512 83.2887 227.609 83.7668C228.376 87.0178 226.704 89.7628 224.734 92.201C222.756 94.5991 220.412 96.6693 217.787 98.335C216.254 99.3471 214.199 100.244 212.42 101.195C210.641 102.146 191.58 118.117 188.911 116.308C185.722 113.826 182.864 110.945 180.408 107.735" fill="#FBF1BE"/>
<path d="M314.344 71.3376C320.478 71.3376 323.698 73.1778 326.244 78.8441C328.682 84.265 336.25 99.991 335.874 103.802C335.498 107.612 319.956 123.837 319.956 123.837L315.517 118.47L325.147 102.291L315.663 88.5665L314.344 71.3376Z" fill="#FBF1BE"/>
<path d="M299.453 238.205C299.453 238.205 300.143 240.298 300.519 242.138C300.818 243.595 301.24 246.026 300.726 247.122C300.212 248.219 298.227 248.924 295.144 248.901C293.143 248.901 290.03 250.243 287.899 251.439C285.767 252.635 281.113 253.156 278.782 252.88C276.037 252.558 273.192 250.963 272.748 249.813C272.303 248.663 271.927 247.122 279.365 244.738C279.426 244.738 288.359 241.809 291.487 238.351L299.453 238.205Z" fill="#263238"/>
<path d="M299.453 238.412L298.035 238.236L291.487 238.366C288.359 241.824 279.426 244.738 279.365 244.753L278.176 245.152C276.88 246.194 277.977 247.966 281.044 248.219C284.111 248.472 293.672 245.274 295.788 244.255C296.899 243.739 297.836 242.913 298.486 241.876C299.136 240.839 299.472 239.636 299.453 238.412Z" fill="#FBF1BE"/>
<path d="M299.454 235.598C299.454 235.598 299.454 237.384 299.454 238.412C299.454 239.439 298.258 240.957 295.129 240.842C292.936 240.766 291.403 240.175 291.487 238.366V235.782L299.454 235.598Z" fill="#FBF1BE"/>
<path d="M320.447 226.451C321.007 226.681 321.122 227.769 321.145 229.924C321.145 231.549 321.444 234.402 319.519 234.923C317.595 235.445 314.811 235.069 313.631 233.505C312.159 231.549 311.169 229.832 309.03 227.432C307.198 225.354 305.196 223.407 304.522 220.531C303.901 217.94 304.522 216.843 306.278 216.138C308.033 215.432 309.651 216.015 312.105 218.062C312.789 218.526 313.522 218.914 314.29 219.22C315.923 219.734 319.88 226.221 320.447 226.451Z" fill="#263238"/>
<path d="M320.501 224.457L320.424 227.102C320.424 227.102 318.661 230.56 313.746 227.102C313.639 226.842 313.194 221.735 313.194 221.735L320.501 224.457Z" fill="#FBF1BE"/>
<path d="M314.313 219.236C313.545 218.93 312.812 218.541 312.128 218.078C310.149 217.441 305.994 218.177 307.857 221.06C309.418 223.43 311.416 225.481 313.745 227.102C315.969 228.199 316.743 226.842 316.743 226.842L315.977 220.639C315.534 220.052 314.966 219.572 314.313 219.236Z" fill="#FBF1BE"/>
<path d="M324.089 187.899C323.108 179.227 321.229 174.22 321.229 174.22C321.229 174.22 322.893 162.55 324.197 151.363C327.264 125.087 325.224 124.665 321.513 115.525C321.513 115.525 287.83 111.193 286.419 125.202C284.663 142.645 285.46 176.474 285.752 182.662C286.043 188.849 286.519 191.648 288.389 204.606C289.785 214.474 291.111 236.043 291.111 236.043C295.528 238.588 299.776 235.598 299.776 235.598C299.776 235.598 304 209.076 303.901 201.938C303.815 196.654 303.041 191.404 301.6 186.319C301.6 186.319 304.468 157.888 305.197 153.349C305.197 153.349 306.009 162.42 306.308 168.607C306.607 174.795 308.279 180.737 309.759 192.261C311.039 202.229 313.171 223.108 313.171 223.108C317.587 225.653 320.669 224.503 320.669 224.503C320.669 224.503 325.063 196.563 324.089 187.899Z" fill="#39D4E8"/>
<path d="M300.09 65.6637L301.324 78.7598L312.826 78.0313L311.905 63.5092L300.09 65.6637Z" fill="#FBF1BE"/>
<path d="M323.161 76.8966C321.988 73.4309 319.611 71.399 314.344 71.3376L312.404 71.399C312.036 73.3312 306.37 74.8954 300.772 72.9325C300.006 73.1395 297.82 73.5382 296.601 73.6992L293.918 74.0903C289.846 75.4244 288.044 82.5245 287.653 93.7267C287.262 104.929 285.583 128.951 285.583 128.951C285.583 128.951 294.347 133.644 308.179 131.826C320.562 130.201 325.377 122.878 324.948 123.814C323.496 117.6 321.351 111.569 318.553 105.834C325.07 89.8009 324.894 82.0414 323.161 76.8966Z" fill="#455A64"/>
<path d="M301.325 132.225C303.617 132.249 305.907 132.111 308.179 131.811C319.466 130.331 324.465 124.143 324.933 123.737C323.483 117.545 321.343 111.534 318.554 105.818C321.851 97.7213 323.43 91.7407 323.967 87.1326C323.43 90.4909 318.469 103.495 311.975 107.398C311.975 107.398 315.64 107.965 318.776 112.274C321.912 116.583 319.336 131.297 301.325 132.225Z" fill="#37474F"/>
<path d="M296.601 73.684C291.196 74.3664 286.541 75.3325 284.571 80.6384C281.972 87.864 277.984 94.5113 272.832 100.206C269.474 103.802 255.688 110.687 252.582 110.173C249.477 109.66 246.678 105.236 245.083 106.156C243.489 107.076 246.985 110.235 246.793 111.017C246.602 111.799 241.004 110.173 238.359 108.295C235.714 106.416 234.142 111.807 237.592 115.84C241.043 119.873 247.499 120.187 254.522 118.784C261.545 117.381 274.381 113.21 279.48 108.456C286.166 102.207 287.385 98.8103 290.283 93.4277C299.515 86.2663 296.601 73.684 296.601 73.684Z" fill="#FBF1BE"/>
<path d="M294.071 49.401C294.071 49.401 289.731 44.2255 293.136 39.1803C297.153 33.2303 304.223 31.2214 312.964 33.813C317.288 35.0935 323.644 41.0741 323.966 49.4623C324.212 55.926 306.086 60.1968 306.377 64.6286L294.071 49.401Z" fill="#263238"/>
<path d="M291.587 51.2948C291.587 51.2948 289.041 55.1285 289.371 55.5579C289.968 55.9496 290.63 56.2325 291.326 56.3937L291.587 51.2948Z" fill="#FBB6B6"/>
<path d="M299.339 39.096C296.862 40.3765 292.584 42.738 291.48 51.8623C290.353 61.2243 292.438 64.4753 293.711 65.7021C294.577 66.5302 299.024 66.8292 301.378 66.1085C304.284 65.2114 310.579 62.1061 313.516 57.2756C316.982 51.5863 317.695 44.0108 313.692 41.0359C308.026 36.8571 301.432 38.0149 299.339 39.096Z" fill="#FBF1BE"/>
<path d="M298.61 39.4947C298.61 39.4947 296.448 48.0363 299.032 53.4342C299.032 53.4342 300.566 50.0988 303.41 51.0572C306.255 52.0157 306.033 55.8647 303.763 57.8276C303.184 58.3925 302.457 58.7816 301.665 58.9498C300.874 59.1181 300.052 59.0587 299.293 58.7784C299.293 58.7784 299.37 63.5092 303.41 65.3801C303.41 65.3801 311.845 69.4208 319.512 61.2626C326.413 53.8559 325.546 40.5605 315.341 37.1944C305.135 33.8284 298.61 39.4947 298.61 39.4947Z" fill="#263238"/>
<path d="M332.945 75.5318C331.336 75.5318 329.743 75.2142 328.257 74.5971C326.772 73.98 325.422 73.0756 324.287 71.9358C323.151 70.7961 322.252 69.4433 321.64 67.9551C321.029 66.467 320.717 64.8727 320.723 63.2639V47.5916C323.963 47.5916 327.069 48.8784 329.36 51.169C331.651 53.4597 332.938 56.5664 332.938 59.8058L332.945 75.5318Z" fill="#263238"/>
<path d="M292.031 35.6609C288.236 39.4946 288.021 50.6968 299.031 53.4418L306.247 33.6674C302.045 30.9301 295.42 32.1952 292.031 35.6609Z" fill="#263238"/>
<path d="M297.928 56.4858C297.652 56.3941 297.397 56.2481 297.178 56.0564C296.96 55.8647 296.782 55.6312 296.655 55.3696C296.528 55.108 296.455 54.8237 296.44 54.5333C296.424 54.243 296.467 53.9525 296.566 53.6791C296.665 53.4057 296.818 53.1548 297.015 52.9413C297.212 52.7278 297.45 52.5559 297.715 52.4359C297.98 52.3159 298.266 52.2501 298.557 52.2425C298.847 52.2348 299.137 52.2854 299.407 52.3913L297.928 56.4858Z" fill="#263238"/>
<path opacity="0.1" d="M305.212 153.364L307.044 141.641C310.736 141.199 314.287 139.964 317.457 138.022C317.457 138.022 315.157 141.48 309.099 142.921L307.228 156.5L306.462 170.723L305.212 153.364Z" fill="black"/>
</svg>
