<svg width="1331" height="302" viewBox="0 0 1331 302" fill="none" xmlns="http://www.w3.org/2000/svg">
<path d="M501.164 190H391.242C388.43 190 385.383 189.688 382.102 189.062C378.898 188.359 375.695 187.305 372.492 185.898C369.367 184.492 366.359 182.695 363.469 180.508C360.578 178.242 358 175.547 355.734 172.422C353.547 169.219 351.789 165.547 350.461 161.406C349.133 157.188 348.469 152.461 348.469 147.227V64.7266C348.469 61.9141 348.781 58.9062 349.406 55.7031C350.109 52.4219 351.164 49.2188 352.57 46.0938C353.977 42.8906 355.812 39.8438 358.078 36.9531C360.344 34.0625 363.039 31.5234 366.164 29.3359C369.367 27.0703 373.039 25.2734 377.18 23.9453C381.32 22.6172 386.008 21.9531 391.242 21.9531H501.164V52.4219H391.242C387.258 52.4219 384.211 53.4766 382.102 55.5859C379.992 57.6953 378.938 60.8203 378.938 64.9609V147.227C378.938 151.133 379.992 154.18 382.102 156.367C384.289 158.477 387.336 159.531 391.242 159.531H501.164V190Z" fill="#C1080C"/>
<path d="M697.922 78.4375C697.922 85.3906 697.062 91.6016 695.344 97.0703C693.625 102.539 691.281 107.383 688.312 111.602C685.422 115.742 682.062 119.297 678.234 122.266C674.406 125.234 670.383 127.695 666.164 129.648C662.023 131.523 657.805 132.891 653.508 133.75C649.289 134.609 645.305 135.039 641.555 135.039L705.188 190H658.078L594.562 135.039H572.648V104.57H641.555C645.383 104.258 648.859 103.477 651.984 102.227C655.188 100.898 657.922 99.1406 660.188 96.9531C662.531 94.7656 664.328 92.1484 665.578 89.1016C666.828 85.9766 667.453 82.4219 667.453 78.4375V59.2188C667.453 57.5 667.219 56.2109 666.75 55.3516C666.359 54.4141 665.812 53.75 665.109 53.3594C664.484 52.8906 663.781 52.6172 663 52.5391C662.297 52.4609 661.633 52.4219 661.008 52.4219H560.461V190H529.992V37.3047C529.992 35.1953 530.383 33.2031 531.164 31.3281C531.945 29.4531 533 27.8125 534.328 26.4062C535.734 25 537.375 23.9063 539.25 23.125C541.125 22.3437 543.156 21.9531 545.344 21.9531H661.008C667.805 21.9531 673.547 23.2031 678.234 25.7031C682.922 28.125 686.711 31.2109 689.602 34.9609C692.57 38.6328 694.68 42.6172 695.93 46.9141C697.258 51.2109 697.922 55.2344 697.922 58.9844V78.4375ZM866.672 121.328H770.461V90.625H866.672V121.328ZM880.383 190H770.461C766.242 190 761.633 189.258 756.633 187.773C751.633 186.289 746.984 183.867 742.688 180.508C738.469 177.07 734.914 172.656 732.023 167.266C729.211 161.797 727.805 155.117 727.805 147.227V37.3047C727.805 35.1953 728.195 33.2031 728.977 31.3281C729.758 29.4531 730.812 27.8125 732.141 26.4062C733.547 25 735.188 23.9063 737.062 23.125C738.938 22.3437 740.969 21.9531 743.156 21.9531H880.383V52.4219H758.273V147.227C758.273 151.211 759.328 154.258 761.438 156.367C763.547 158.477 766.633 159.531 770.695 159.531H880.383V190ZM1078.08 21.9531L998.508 184.023C997.258 186.523 995.383 188.516 992.883 190C990.461 191.562 987.766 192.344 984.797 192.344C981.906 192.344 979.211 191.562 976.711 190C974.289 188.516 972.414 186.523 971.086 184.023L891.633 21.9531H925.734L984.797 143.008L1044.09 21.9531H1078.08ZM1126.01 190H1095.54V21.9531H1126.01V190ZM1323.12 140.547C1323.12 146.562 1322.34 151.992 1320.77 156.836C1319.29 161.602 1317.3 165.82 1314.8 169.492C1312.3 173.164 1309.37 176.289 1306.01 178.867C1302.65 181.445 1299.17 183.555 1295.58 185.195C1291.98 186.836 1288.31 188.047 1284.56 188.828C1280.89 189.609 1277.41 190 1274.13 190H1156.59V159.531H1274.13C1279.99 159.531 1284.52 157.812 1287.73 154.375C1291.01 150.938 1292.65 146.328 1292.65 140.547C1292.65 137.734 1292.22 135.156 1291.36 132.812C1290.5 130.469 1289.25 128.438 1287.61 126.719C1286.05 125 1284.09 123.672 1281.75 122.734C1279.48 121.797 1276.95 121.328 1274.13 121.328H1204.05C1199.13 121.328 1193.82 120.469 1188.12 118.75C1182.41 116.953 1177.1 114.102 1172.18 110.195C1167.34 106.289 1163.27 101.172 1159.99 94.8438C1156.79 88.5156 1155.19 80.7812 1155.19 71.6406C1155.19 62.5 1156.79 54.8047 1159.99 48.5547C1163.27 42.2266 1167.34 37.1094 1172.18 33.2031C1177.1 29.2188 1182.41 26.3672 1188.12 24.6484C1193.82 22.8516 1199.13 21.9531 1204.05 21.9531H1307.77V52.4219H1204.05C1198.27 52.4219 1193.74 54.1797 1190.46 57.6953C1187.26 61.2109 1185.66 65.8594 1185.66 71.6406C1185.66 77.5 1187.26 82.1484 1190.46 85.5859C1193.74 88.9453 1198.27 90.625 1204.05 90.625H1274.13H1274.37C1277.65 90.7031 1281.12 91.1719 1284.8 92.0312C1288.47 92.8125 1292.1 94.0625 1295.7 95.7812C1299.37 97.5 1302.84 99.6875 1306.12 102.344C1309.41 104.922 1312.3 108.047 1314.8 111.719C1317.38 115.391 1319.41 119.609 1320.89 124.375C1322.38 129.141 1323.12 134.531 1323.12 140.547Z" fill="white"/>
<path d="M348.492 294.286C346.575 294.286 344.887 293.86 343.427 293.01C341.979 292.159 340.856 290.953 340.056 289.392C339.256 287.83 338.856 286.021 338.856 283.964V276.366C338.856 274.31 339.256 272.5 340.056 270.939C340.856 269.377 341.979 268.171 343.427 267.321C344.887 266.458 346.575 266.026 348.492 266.026C350.079 266.026 351.539 266.369 352.872 267.054C354.205 267.727 355.316 268.686 356.205 269.93C357.106 271.174 357.715 272.615 358.033 274.252H354.053C353.812 273.389 353.405 272.621 352.834 271.948C352.275 271.263 351.615 270.736 350.854 270.368C350.092 270 349.305 269.815 348.492 269.815C347.362 269.815 346.372 270.088 345.521 270.634C344.671 271.18 344.011 271.948 343.541 272.938C343.071 273.916 342.836 275.059 342.836 276.366V283.964C342.836 285.259 343.071 286.402 343.541 287.392C344.011 288.382 344.671 289.15 345.521 289.696C346.372 290.229 347.362 290.496 348.492 290.496C349.317 290.496 350.104 290.325 350.854 289.982C351.615 289.639 352.275 289.131 352.834 288.458C353.405 287.786 353.812 286.986 354.053 286.059H358.033C357.715 287.697 357.106 289.138 356.205 290.382C355.303 291.626 354.186 292.591 352.853 293.276C351.52 293.949 350.066 294.286 348.492 294.286ZM371.972 294.286C370.042 294.286 368.341 293.867 366.869 293.029C365.396 292.178 364.253 290.985 363.441 289.449C362.641 287.9 362.241 286.11 362.241 284.079V276.233C362.241 274.202 362.641 272.418 363.441 270.882C364.253 269.333 365.396 268.14 366.869 267.302C368.341 266.451 370.042 266.026 371.972 266.026C373.902 266.026 375.603 266.451 377.076 267.302C378.548 268.14 379.685 269.333 380.484 270.882C381.297 272.418 381.703 274.202 381.703 276.233V284.079C381.703 286.11 381.297 287.9 380.484 289.449C379.685 290.985 378.548 292.178 377.076 293.029C375.603 293.867 373.902 294.286 371.972 294.286ZM371.972 290.458C373.115 290.458 374.118 290.204 374.981 289.696C375.857 289.176 376.53 288.446 377 287.506C377.482 286.554 377.723 285.456 377.723 284.212V276.1C377.723 274.855 377.482 273.764 377 272.824C376.53 271.872 375.857 271.142 374.981 270.634C374.118 270.114 373.115 269.854 371.972 269.854C370.83 269.854 369.82 270.114 368.944 270.634C368.081 271.142 367.408 271.872 366.926 272.824C366.456 273.764 366.221 274.855 366.221 276.1V284.212C366.221 285.456 366.456 286.554 366.926 287.506C367.408 288.446 368.081 289.176 368.944 289.696C369.82 290.204 370.83 290.458 371.972 290.458ZM394.386 266.312H397.699L407.906 294H403.717L396.042 271.663L388.368 294H384.179L394.386 266.312ZM388.882 284.231H403.45V287.925H388.882V284.231ZM412.096 266.312H415.98V294H412.096V266.312ZM414.038 290.306H429.882V294H414.038V290.306ZM446.621 278.594H456.066C456.802 278.594 457.456 278.417 458.027 278.061C458.599 277.706 459.037 277.204 459.341 276.557C459.659 275.896 459.817 275.141 459.817 274.291C459.817 273.44 459.659 272.691 459.341 272.043C459.037 271.383 458.599 270.875 458.027 270.52C457.469 270.165 456.815 269.987 456.066 269.987H446.621V266.292H455.914C457.513 266.292 458.916 266.623 460.122 267.283C461.341 267.943 462.28 268.882 462.94 270.101C463.613 271.307 463.95 272.704 463.95 274.291C463.95 275.877 463.613 277.28 462.94 278.499C462.268 279.705 461.322 280.638 460.103 281.298C458.897 281.958 457.5 282.289 455.914 282.289H446.621V278.594ZM444.926 266.292H448.811V294H444.926V266.292ZM454.162 281.432L458.027 280.556L465.111 294H460.503L454.162 281.432ZM470.367 266.312H474.252V294H470.367V266.312ZM472.252 290.306H488.153V294H472.252V290.306ZM472.252 278.404H486.059V282.098H472.252V278.404ZM472.252 266.312H488.153V270.006H472.252V266.312ZM501.998 294.286C500.665 294.286 499.401 294.159 498.208 293.905C497.015 293.651 495.897 293.27 494.856 292.762C493.828 292.254 492.863 291.62 491.962 290.858L494.38 287.887C495.434 288.801 496.596 289.487 497.865 289.944C499.135 290.401 500.512 290.629 501.998 290.629C504.003 290.629 505.559 290.261 506.663 289.525C507.768 288.776 508.32 287.722 508.32 286.364V286.345C508.32 285.38 508.066 284.618 507.558 284.06C507.063 283.488 506.416 283.069 505.616 282.803C504.829 282.523 503.807 282.27 502.55 282.041C502.512 282.028 502.467 282.022 502.417 282.022C502.378 282.022 502.34 282.016 502.302 282.003L502.017 281.946C500.163 281.628 498.652 281.273 497.484 280.879C496.329 280.473 495.339 279.743 494.514 278.689C493.688 277.623 493.276 276.112 493.276 274.157V274.138C493.276 272.424 493.657 270.964 494.418 269.758C495.193 268.54 496.316 267.613 497.789 266.978C499.262 266.343 501.033 266.026 503.102 266.026C504.092 266.026 505.063 266.134 506.016 266.35C506.98 266.565 507.926 266.889 508.853 267.321C509.792 267.74 510.713 268.273 511.614 268.92L509.405 272.005C508.352 271.231 507.298 270.653 506.244 270.272C505.203 269.879 504.156 269.682 503.102 269.682C501.21 269.682 499.738 270.063 498.684 270.825C497.643 271.574 497.123 272.64 497.123 274.024V274.043C497.123 274.995 497.389 275.744 497.922 276.29C498.468 276.836 499.141 277.242 499.941 277.509C500.753 277.763 501.877 278.029 503.312 278.309C503.362 278.321 503.407 278.334 503.445 278.347C503.496 278.347 503.546 278.353 503.597 278.366C503.661 278.378 503.73 278.391 503.807 278.404C503.883 278.417 503.953 278.429 504.016 278.442C505.692 278.785 507.088 279.191 508.206 279.661C509.335 280.13 510.275 280.892 511.024 281.946C511.786 282.987 512.167 284.415 512.167 286.23V286.269C512.167 287.957 511.767 289.404 510.967 290.61C510.167 291.804 509.005 292.718 507.482 293.353C505.971 293.975 504.143 294.286 501.998 294.286ZM517.327 266.312H521.212V294H517.327V266.312ZM519.212 290.306H535.113V294H519.212V290.306ZM519.212 278.404H533.019V282.098H519.212V278.404ZM519.212 266.312H535.113V270.006H519.212V266.312ZM542.331 278.594H551.776C552.512 278.594 553.166 278.417 553.737 278.061C554.309 277.706 554.747 277.204 555.051 276.557C555.369 275.896 555.527 275.141 555.527 274.291C555.527 273.44 555.369 272.691 555.051 272.043C554.747 271.383 554.309 270.875 553.737 270.52C553.179 270.165 552.525 269.987 551.776 269.987H542.331V266.292H551.624C553.223 266.292 554.626 266.623 555.832 267.283C557.051 267.943 557.99 268.882 558.65 270.101C559.323 271.307 559.66 272.704 559.66 274.291C559.66 275.877 559.323 277.28 558.65 278.499C557.978 279.705 557.032 280.638 555.813 281.298C554.607 281.958 553.21 282.289 551.624 282.289H542.331V278.594ZM540.636 266.292H544.521V294H540.636V266.292ZM549.872 281.432L553.737 280.556L560.821 294H556.213L549.872 281.432ZM563.03 266.312H567.258L573.904 288.021L580.55 266.312H584.777L575.751 294H572.057L563.03 266.312ZM588.967 266.312H592.852V294H588.967V266.312ZM590.852 290.306H606.753V294H590.852V290.306ZM590.852 278.404H604.658V282.098H590.852V278.404ZM590.852 266.312H606.753V270.006H590.852V266.312ZM622.749 266.312H626.634V294H622.749V266.312ZM624.634 290.306H640.535V294H624.634V290.306ZM624.634 278.404H638.44V282.098H624.634V278.404ZM624.634 266.312H640.535V270.006H624.634V266.312ZM643.201 266.312H647.429L654.075 288.021L660.721 266.312H664.948L655.922 294H652.228L643.201 266.312ZM674.774 266.312H678.088L688.295 294H684.105L676.431 271.663L668.757 294H664.567L674.774 266.312ZM669.271 284.231H683.839V287.925H669.271V284.231ZM692.484 266.312H696.369V294H692.484V266.312ZM694.427 290.306H710.271V294H694.427V290.306ZM723.41 294.286C721.366 294.286 719.614 293.886 718.154 293.086C716.707 292.273 715.603 291.099 714.841 289.563C714.079 288.014 713.698 286.154 713.698 283.983V266.312H717.583V284.117C717.583 286.135 718.091 287.697 719.106 288.801C720.122 289.906 721.557 290.458 723.41 290.458C725.276 290.458 726.717 289.906 727.733 288.801C728.761 287.697 729.275 286.135 729.275 284.117V266.312H733.16V283.983C733.16 286.154 732.779 288.014 732.018 289.563C731.256 291.099 730.145 292.273 728.685 293.086C727.225 293.886 725.467 294.286 723.41 294.286ZM746.033 266.312H749.347L759.554 294H755.364L747.69 271.663L740.016 294H735.826L746.033 266.312ZM740.53 284.231H755.098V287.925H740.53V284.231ZM767 268.578H770.884V294H767V268.578ZM759.173 266.312H778.711V270.006H759.173V266.312ZM786.404 294H782.52V266.312H786.404V294ZM802.419 294.286C800.49 294.286 798.789 293.867 797.316 293.029C795.843 292.178 794.701 290.985 793.888 289.449C793.088 287.9 792.688 286.11 792.688 284.079V276.233C792.688 274.202 793.088 272.418 793.888 270.882C794.701 269.333 795.843 268.14 797.316 267.302C798.789 266.451 800.49 266.026 802.419 266.026C804.349 266.026 806.05 266.451 807.523 267.302C808.996 268.14 810.132 269.333 810.932 270.882C811.744 272.418 812.15 274.202 812.15 276.233V284.079C812.15 286.11 811.744 287.9 810.932 289.449C810.132 290.985 808.996 292.178 807.523 293.029C806.05 293.867 804.349 294.286 802.419 294.286ZM802.419 290.458C803.562 290.458 804.565 290.204 805.428 289.696C806.304 289.176 806.977 288.446 807.447 287.506C807.929 286.554 808.17 285.456 808.17 284.212V276.1C808.17 274.855 807.929 273.764 807.447 272.824C806.977 271.872 806.304 271.142 805.428 270.634C804.565 270.114 803.562 269.854 802.419 269.854C801.277 269.854 800.268 270.114 799.392 270.634C798.528 271.142 797.855 271.872 797.373 272.824C796.903 273.764 796.668 274.855 796.668 276.1V284.212C796.668 285.456 796.903 286.554 797.373 287.506C797.855 288.446 798.528 289.176 799.392 289.696C800.268 290.204 801.277 290.458 802.419 290.458ZM818.054 266.312H821.577L835.116 287.716L834.659 288.211V266.312H838.506V293.981H834.945L821.443 272.9L821.9 272.405V293.981H818.054V266.312ZM859.72 294H855.835V266.312H859.72V294ZM866.575 266.312H870.098L883.638 287.716L883.181 288.211V266.312H887.027V293.981H883.466L869.965 272.9L870.422 272.405V293.981H866.575V266.312ZM893.883 266.312H897.768V294H893.883V266.312ZM895.787 278.651H909.212V282.346H895.787V278.651ZM895.787 266.312H911.307V270.006H895.787V266.312ZM924.866 294.286C922.936 294.286 921.235 293.867 919.762 293.029C918.29 292.178 917.147 290.985 916.334 289.449C915.535 287.9 915.135 286.11 915.135 284.079V276.233C915.135 274.202 915.535 272.418 916.334 270.882C917.147 269.333 918.29 268.14 919.762 267.302C921.235 266.451 922.936 266.026 924.866 266.026C926.795 266.026 928.497 266.451 929.969 267.302C931.442 268.14 932.578 269.333 933.378 270.882C934.19 272.418 934.597 274.202 934.597 276.233V284.079C934.597 286.11 934.19 287.9 933.378 289.449C932.578 290.985 931.442 292.178 929.969 293.029C928.497 293.867 926.795 294.286 924.866 294.286ZM924.866 290.458C926.008 290.458 927.011 290.204 927.875 289.696C928.75 289.176 929.423 288.446 929.893 287.506C930.375 286.554 930.617 285.456 930.617 284.212V276.1C930.617 274.855 930.375 273.764 929.893 272.824C929.423 271.872 928.75 271.142 927.875 270.634C927.011 270.114 926.008 269.854 924.866 269.854C923.723 269.854 922.714 270.114 921.838 270.634C920.975 271.142 920.302 271.872 919.819 272.824C919.35 273.764 919.115 274.855 919.115 276.1V284.212C919.115 285.456 919.35 286.554 919.819 287.506C920.302 288.446 920.975 289.176 921.838 289.696C922.714 290.204 923.723 290.458 924.866 290.458ZM942.195 278.594H951.64C952.376 278.594 953.03 278.417 953.602 278.061C954.173 277.706 954.611 277.204 954.916 276.557C955.233 275.896 955.392 275.141 955.392 274.291C955.392 273.44 955.233 272.691 954.916 272.043C954.611 271.383 954.173 270.875 953.602 270.52C953.043 270.165 952.389 269.987 951.64 269.987H942.195V266.292H951.488C953.087 266.292 954.49 266.623 955.696 267.283C956.915 267.943 957.854 268.882 958.515 270.101C959.188 271.307 959.524 272.704 959.524 274.291C959.524 275.877 959.188 277.28 958.515 278.499C957.842 279.705 956.896 280.638 955.677 281.298C954.471 281.958 953.075 282.289 951.488 282.289H942.195V278.594ZM940.5 266.292H944.385V294H940.5V266.292ZM949.736 281.432L953.602 280.556L960.686 294H956.077L949.736 281.432ZM985.841 266.312H989.479V294H985.689V273.262L985.879 274.481L979.062 290.153H976.358L969.541 274.862L969.731 273.262V294H965.941V266.312H969.579L977.71 284.593L985.841 266.312ZM1003.49 266.312H1006.81L1017.01 294H1012.83L1005.15 271.663L997.477 294H993.287L1003.49 266.312ZM997.991 284.231H1012.56V287.925H997.991V284.231ZM1024.46 268.578H1028.35V294H1024.46V268.578ZM1016.63 266.312H1036.17V270.006H1016.63V266.312ZM1043.87 294H1039.98V266.312H1043.87V294ZM1059.88 294.286C1057.95 294.286 1056.25 293.867 1054.78 293.029C1053.3 292.178 1052.16 290.985 1051.35 289.449C1050.55 287.9 1050.15 286.11 1050.15 284.079V276.233C1050.15 274.202 1050.55 272.418 1051.35 270.882C1052.16 269.333 1053.3 268.14 1054.78 267.302C1056.25 266.451 1057.95 266.026 1059.88 266.026C1061.81 266.026 1063.51 266.451 1064.98 267.302C1066.46 268.14 1067.59 269.333 1068.39 270.882C1069.21 272.418 1069.61 274.202 1069.61 276.233V284.079C1069.61 286.11 1069.21 287.9 1068.39 289.449C1067.59 290.985 1066.46 292.178 1064.98 293.029C1063.51 293.867 1061.81 294.286 1059.88 294.286ZM1059.88 290.458C1061.02 290.458 1062.03 290.204 1062.89 289.696C1063.77 289.176 1064.44 288.446 1064.91 287.506C1065.39 286.554 1065.63 285.456 1065.63 284.212V276.1C1065.63 274.855 1065.39 273.764 1064.91 272.824C1064.44 271.872 1063.77 271.142 1062.89 270.634C1062.03 270.114 1061.02 269.854 1059.88 269.854C1058.74 269.854 1057.73 270.114 1056.85 270.634C1055.99 271.142 1055.32 271.872 1054.83 272.824C1054.36 273.764 1054.13 274.855 1054.13 276.1V284.212C1054.13 285.456 1054.36 286.554 1054.83 287.506C1055.32 288.446 1055.99 289.176 1056.85 289.696C1057.73 290.204 1058.74 290.458 1059.88 290.458ZM1075.51 266.312H1079.04L1092.58 287.716L1092.12 288.211V266.312H1095.97V293.981H1092.41L1078.9 272.9L1079.36 272.405V293.981H1075.51V266.312ZM1121.62 294.286C1120.28 294.286 1119.02 294.159 1117.83 293.905C1116.63 293.651 1115.52 293.27 1114.48 292.762C1113.45 292.254 1112.48 291.62 1111.58 290.858L1114 287.887C1115.05 288.801 1116.22 289.487 1117.49 289.944C1118.75 290.401 1120.13 290.629 1121.62 290.629C1123.62 290.629 1125.18 290.261 1126.28 289.525C1127.39 288.776 1127.94 287.722 1127.94 286.364V286.345C1127.94 285.38 1127.69 284.618 1127.18 284.06C1126.68 283.488 1126.04 283.069 1125.24 282.803C1124.45 282.523 1123.43 282.27 1122.17 282.041C1122.13 282.028 1122.09 282.022 1122.04 282.022C1122 282.022 1121.96 282.016 1121.92 282.003L1121.64 281.946C1119.78 281.628 1118.27 281.273 1117.1 280.879C1115.95 280.473 1114.96 279.743 1114.13 278.689C1113.31 277.623 1112.9 276.112 1112.9 274.157V274.138C1112.9 272.424 1113.28 270.964 1114.04 269.758C1114.81 268.54 1115.94 267.613 1117.41 266.978C1118.88 266.343 1120.65 266.026 1122.72 266.026C1123.71 266.026 1124.68 266.134 1125.64 266.35C1126.6 266.565 1127.55 266.889 1128.47 267.321C1129.41 267.74 1130.33 268.273 1131.23 268.92L1129.03 272.005C1127.97 271.231 1126.92 270.653 1125.86 270.272C1124.82 269.879 1123.78 269.682 1122.72 269.682C1120.83 269.682 1119.36 270.063 1118.3 270.825C1117.26 271.574 1116.74 272.64 1116.74 274.024V274.043C1116.74 274.995 1117.01 275.744 1117.54 276.29C1118.09 276.836 1118.76 277.242 1119.56 277.509C1120.37 277.763 1121.5 278.029 1122.93 278.309C1122.98 278.321 1123.03 278.334 1123.06 278.347C1123.12 278.347 1123.17 278.353 1123.22 278.366C1123.28 278.378 1123.35 278.391 1123.43 278.404C1123.5 278.417 1123.57 278.429 1123.64 278.442C1125.31 278.785 1126.71 279.191 1127.83 279.661C1128.96 280.13 1129.9 280.892 1130.64 281.946C1131.41 282.987 1131.79 284.415 1131.79 286.23V286.269C1131.79 287.957 1131.39 289.404 1130.59 290.61C1129.79 291.804 1128.63 292.718 1127.1 293.353C1125.59 293.975 1123.76 294.286 1121.62 294.286ZM1141.35 268.578H1145.23V294H1141.35V268.578ZM1133.52 266.312H1153.06V270.006H1133.52V266.312ZM1162.69 266.312H1166.01L1176.21 294H1172.02L1164.35 271.663L1156.68 294H1152.49L1162.69 266.312ZM1157.19 284.231H1171.76V287.925H1157.19V284.231ZM1180.4 266.312H1183.93L1197.47 287.716L1197.01 288.211V266.312H1200.86V293.981H1197.29L1183.79 272.9L1184.25 272.405V293.981H1180.4V266.312ZM1210.34 290.306H1216.6C1218.65 290.306 1220.23 289.779 1221.35 288.725C1222.48 287.659 1223.04 286.161 1223.04 284.231V276.081C1223.04 274.151 1222.48 272.659 1221.35 271.605C1220.23 270.539 1218.65 270.006 1216.6 270.006H1210.34V266.312H1216.49C1218.71 266.312 1220.61 266.699 1222.18 267.473C1223.76 268.248 1224.96 269.377 1225.78 270.863C1226.61 272.348 1227.02 274.138 1227.02 276.233V284.079C1227.02 286.173 1226.61 287.963 1225.78 289.449C1224.96 290.934 1223.75 292.064 1222.16 292.838C1220.59 293.613 1218.69 294 1216.47 294H1210.34V290.306ZM1207.71 266.312H1211.6V294H1207.71V266.312ZM1239.7 266.312H1243.02L1253.22 294H1249.03L1241.36 271.663L1233.69 294H1229.5L1239.7 266.312ZM1234.2 284.231H1248.77V287.925H1234.2V284.231ZM1259.11 278.594H1268.55C1269.29 278.594 1269.94 278.417 1270.51 278.061C1271.09 277.706 1271.52 277.204 1271.83 276.557C1272.15 275.896 1272.3 275.141 1272.3 274.291C1272.3 273.44 1272.15 272.691 1271.83 272.043C1271.52 271.383 1271.09 270.875 1270.51 270.52C1269.96 270.165 1269.3 269.987 1268.55 269.987H1259.11V266.292H1268.4C1270 266.292 1271.4 266.623 1272.61 267.283C1273.83 267.943 1274.77 268.882 1275.43 270.101C1276.1 271.307 1276.44 272.704 1276.44 274.291C1276.44 275.877 1276.1 277.28 1275.43 278.499C1274.75 279.705 1273.81 280.638 1272.59 281.298C1271.38 281.958 1269.99 282.289 1268.4 282.289H1259.11V278.594ZM1257.41 266.292H1261.3V294H1257.41V266.292ZM1266.65 281.432L1270.51 280.556L1277.6 294H1272.99L1266.65 281.432ZM1285.48 290.306H1291.75C1293.79 290.306 1295.37 289.779 1296.49 288.725C1297.62 287.659 1298.18 286.161 1298.18 284.231V276.081C1298.18 274.151 1297.62 272.659 1296.49 271.605C1295.37 270.539 1293.79 270.006 1291.75 270.006H1285.48V266.312H1291.63C1293.85 266.312 1295.75 266.699 1297.33 267.473C1298.9 268.248 1300.1 269.377 1300.93 270.863C1301.75 272.348 1302.16 274.138 1302.16 276.233V284.079C1302.16 286.173 1301.75 287.963 1300.93 289.449C1300.1 290.934 1298.9 292.064 1297.31 292.838C1295.73 293.613 1293.84 294 1291.61 294H1285.48V290.306ZM1282.85 266.312H1286.74V294H1282.85V266.312ZM1316.01 294.286C1314.68 294.286 1313.41 294.159 1312.22 293.905C1311.03 293.651 1309.91 293.27 1308.87 292.762C1307.84 292.254 1306.87 291.62 1305.97 290.858L1308.39 287.887C1309.44 288.801 1310.61 289.487 1311.88 289.944C1313.15 290.401 1314.52 290.629 1316.01 290.629C1318.01 290.629 1319.57 290.261 1320.67 289.525C1321.78 288.776 1322.33 287.722 1322.33 286.364V286.345C1322.33 285.38 1322.08 284.618 1321.57 284.06C1321.07 283.488 1320.43 283.069 1319.63 282.803C1318.84 282.523 1317.82 282.27 1316.56 282.041C1316.52 282.028 1316.48 282.022 1316.43 282.022C1316.39 282.022 1316.35 282.016 1316.31 282.003L1316.03 281.946C1314.17 281.628 1312.66 281.273 1311.5 280.879C1310.34 280.473 1309.35 279.743 1308.52 278.689C1307.7 277.623 1307.29 276.112 1307.29 274.157V274.138C1307.29 272.424 1307.67 270.964 1308.43 269.758C1309.2 268.54 1310.33 267.613 1311.8 266.978C1313.27 266.343 1315.04 266.026 1317.11 266.026C1318.1 266.026 1319.07 266.134 1320.03 266.35C1320.99 266.565 1321.94 266.889 1322.86 267.321C1323.8 267.74 1324.72 268.273 1325.62 268.92L1323.42 272.005C1322.36 271.231 1321.31 270.653 1320.25 270.272C1319.21 269.879 1318.17 269.682 1317.11 269.682C1315.22 269.682 1313.75 270.063 1312.69 270.825C1311.65 271.574 1311.13 272.64 1311.13 274.024V274.043C1311.13 274.995 1311.4 275.744 1311.93 276.29C1312.48 276.836 1313.15 277.242 1313.95 277.509C1314.76 277.763 1315.89 278.029 1317.32 278.309C1317.37 278.321 1317.42 278.334 1317.46 278.347C1317.51 278.347 1317.56 278.353 1317.61 278.366C1317.67 278.378 1317.74 278.391 1317.82 278.404C1317.89 278.417 1317.96 278.429 1318.03 278.442C1319.7 278.785 1321.1 279.191 1322.22 279.661C1323.35 280.13 1324.29 280.892 1325.03 281.946C1325.8 282.987 1326.18 284.415 1326.18 286.23V286.269C1326.18 287.957 1325.78 289.404 1324.98 290.61C1324.18 291.804 1323.02 292.718 1321.49 293.353C1319.98 293.975 1318.15 294.286 1316.01 294.286Z" fill="#C1080C"/>
<path d="M770 90L812.001 90.5H866L770 121.5V90Z" fill="#C1080C"/>
<rect x="333" y="220" width="998" height="15" fill="white"/>
<circle cx="136.364" cy="163.637" r="130.364" stroke="#C1080C" stroke-width="12"/>
<path d="M209.777 85.155L193.195 92.0457L172.881 140.374L140.949 144.374L101.131 193.007L67.9952 170.326L34 234.998H105.853L121.038 191.474C121.261 190.831 121.636 190.248 122.141 189.774L158.61 155.094C160.359 153.434 163.151 153.47 164.855 155.174C166.555 156.882 166.518 159.612 164.769 161.273L129.058 195.232L115.188 234.996L238 235V15L209.777 85.155ZM221.277 107.318L198.054 158.728L207.212 208.448C207.645 210.793 206.048 213.035 203.647 213.458C203.383 213.506 203.118 213.526 202.86 213.526C200.764 213.526 198.903 212.062 198.519 209.976L189.123 158.958C188.968 158.111 189.074 157.238 189.433 156.451L213.203 103.836C214.187 101.654 216.791 100.67 219.026 101.63C221.255 102.591 222.266 105.136 221.277 107.319L221.277 107.318Z" fill="white"/>
<path fill-rule="evenodd" clip-rule="evenodd" d="M64.8604 161.482C39.4328 138.13 53.9629 94.5413 88.7304 66C84.0603 76.8975 80.4275 87.7954 84.5793 98.1718L97.5523 84.6798C92.8822 98.691 91.3251 112.701 99.6278 125.155C104.298 118.41 103.779 110.626 101.184 101.804C118.827 123.079 122.459 150.583 102.741 166.149C107.411 155.771 104.297 142.798 94.957 131.901C96.5135 137.609 96.5135 142.799 93.9189 146.95C88.2106 138.647 89.7678 129.826 92.3624 120.485L84.0595 129.307C81.4649 122.561 83.5405 115.296 86.6541 108.032C67.9724 123.08 58.1128 144.875 64.3401 160.443L64.8604 161.482Z" fill="#C1080C"/>
<rect x="238" y="72" width="9.2" height="36" fill="#1E2735"/>
<rect x="215.124" y="47.2725" width="9.19552" height="24.7176" transform="rotate(21.8 215.124 47.2725)" fill="#1E2735"/>
</svg>
